<mxfile host="app.diagrams.net" agent="Mozilla/5.0 (Windows NT 10.0; Win64; x64) AppleWebKit/537.36 (KHTML, like Gecko) Chrome/130.0.0.0 YaBrowser/24.12.0.0 Safari/537.36" version="26.1.0" pages="3">
  <diagram id="326YfQ6A8uz0iwaCt7I8" name="BPMN AS-IS">
    <mxGraphModel dx="3599" dy="2827" grid="1" gridSize="10" guides="1" tooltips="1" connect="1" arrows="1" fold="1" page="1" pageScale="1" pageWidth="827" pageHeight="1169" math="0" shadow="0">
      <root>
        <mxCell id="0" />
        <mxCell id="1" parent="0" />
        <mxCell id="_fkPrWMEkgT71YqrRsoF-1" value="&lt;h1&gt;&lt;font style=&quot;font-size: 40px;&quot;&gt;Задание&lt;/font&gt;&lt;/h1&gt;&lt;font style=&quot;font-size: 20px;&quot;&gt;Составьте диаграмму текущего бизнес-процесса AS-IS в формате BPMN на основе представленного описания&lt;br&gt;&lt;/font&gt;&lt;p style=&quot;font-size: 20px;&quot;&gt;&lt;font style=&quot;font-size: 20px;&quot;&gt;Как выполнить задание:&lt;/font&gt;&lt;/p&gt;&lt;p style=&quot;font-size: 20px;&quot;&gt;&lt;font style=&quot;font-size: 20px;&quot;&gt;1. Проанализируйте часть представленную диаграмму AS-IS в нотации BPMN, которая была составлена на основании интервью с администратором и пациентом. Однако в диаграмме отсутствует часть посещения врача пациентом.&amp;nbsp;&lt;/font&gt;&lt;/p&gt;&lt;p style=&quot;font-size: 20px;&quot;&gt;2. Просмотрите доступные элементы для дополнения представленной диаграммы.&amp;nbsp;&lt;/p&gt;&lt;p style=&quot;font-size: 20px;&quot;&gt;3. Внимательно изучите интервью пациента и врача, на основании этого корректно дополните диаграмму, расставив в правильной последовательности доступные элементы .&lt;/p&gt;&lt;p style=&quot;font-size: 20px;&quot;&gt;&lt;span style=&quot;background-color: initial;&quot;&gt;&lt;font style=&quot;font-size: 20px;&quot;&gt;4. Далее изобразите потоки в том процессе, который вы дополнили.&amp;nbsp;&lt;/font&gt;&lt;/span&gt;&lt;/p&gt;&lt;p style=&quot;font-size: 20px;&quot;&gt;&lt;font style=&quot;font-size: 20px;&quot;&gt;5. Если вам не хватает информации в задании, то вы можете ее самостоятельно добавить в виде допущения&lt;/font&gt;&lt;/p&gt;&lt;p style=&quot;font-size: 20px;&quot;&gt;&lt;i&gt;Помните, что вы всегда можете оставить дополнительную информацию со своими размышлениями ревьюеру в виде пометок. Просто возьмите одну из карточек ниже.&amp;nbsp;&lt;/i&gt;&lt;/p&gt;&lt;p style=&quot;font-size: 20px;&quot;&gt;&lt;font style=&quot;font-size: 20px;&quot;&gt;7. Когда диаграмма BPMN будет готова, переходите к вкладке №2 для составления диаграммы состояний.&lt;/font&gt;&lt;/p&gt;" style="text;html=1;strokeColor=#82b366;fillColor=#d5e8d4;spacing=5;spacingTop=-20;whiteSpace=wrap;overflow=hidden;rounded=0;fontSize=16;" parent="1" vertex="1">
          <mxGeometry x="-760" y="-1120" width="710" height="1280" as="geometry" />
        </mxCell>
        <mxCell id="U2e4l5wQemaMT4tLWJ_u-86" value="Медицинская клиника&amp;nbsp;&lt;span style=&quot;text-align: start; fill: rgb(144, 101, 176);&quot; data-reactroot=&quot;&quot; class=&quot;notion-enable-hover&quot; data-token-index=&quot;0&quot;&gt;«Вита» имени Е.Л. Яницкой&lt;/span&gt;" style="swimlane;html=1;childLayout=stackLayout;resizeParent=1;resizeParentMax=0;horizontal=1;startSize=20;horizontalStack=0;" parent="1" vertex="1">
          <mxGeometry x="10" y="-620" width="3240" height="750" as="geometry" />
        </mxCell>
        <mxCell id="U2e4l5wQemaMT4tLWJ_u-87" value="Администратор" style="swimlane;html=1;startSize=20;horizontal=0;" parent="U2e4l5wQemaMT4tLWJ_u-86" vertex="1">
          <mxGeometry y="20" width="3240" height="410" as="geometry" />
        </mxCell>
        <mxCell id="U2e4l5wQemaMT4tLWJ_u-88" style="edgeStyle=orthogonalEdgeStyle;rounded=0;orthogonalLoop=1;jettySize=auto;html=1;" parent="U2e4l5wQemaMT4tLWJ_u-87" source="U2e4l5wQemaMT4tLWJ_u-89" edge="1">
          <mxGeometry relative="1" as="geometry">
            <mxPoint x="680" y="160.00000000000023" as="targetPoint" />
          </mxGeometry>
        </mxCell>
        <mxCell id="U2e4l5wQemaMT4tLWJ_u-89" value="Записать пациента на приём" style="points=[[0.25,0,0],[0.5,0,0],[0.75,0,0],[1,0.25,0],[1,0.5,0],[1,0.75,0],[0.75,1,0],[0.5,1,0],[0.25,1,0],[0,0.75,0],[0,0.5,0],[0,0.25,0]];shape=mxgraph.bpmn.task;whiteSpace=wrap;rectStyle=rounded;size=10;taskMarker=abstract;fontSize=11;" parent="U2e4l5wQemaMT4tLWJ_u-87" vertex="1">
          <mxGeometry x="450" y="120" width="120" height="80" as="geometry" />
        </mxCell>
        <mxCell id="U2e4l5wQemaMT4tLWJ_u-90" style="edgeStyle=orthogonalEdgeStyle;rounded=0;orthogonalLoop=1;jettySize=auto;html=1;entryX=0;entryY=0.5;entryDx=0;entryDy=0;entryPerimeter=0;" parent="U2e4l5wQemaMT4tLWJ_u-87" source="U2e4l5wQemaMT4tLWJ_u-91" target="U2e4l5wQemaMT4tLWJ_u-89" edge="1">
          <mxGeometry relative="1" as="geometry">
            <mxPoint x="340" y="189.99999999999977" as="targetPoint" />
          </mxGeometry>
        </mxCell>
        <mxCell id="U2e4l5wQemaMT4tLWJ_u-91" value="Найти свободное время для записи на  приём" style="points=[[0.25,0,0],[0.5,0,0],[0.75,0,0],[1,0.25,0],[1,0.5,0],[1,0.75,0],[0.75,1,0],[0.5,1,0],[0.25,1,0],[0,0.75,0],[0,0.5,0],[0,0.25,0]];shape=mxgraph.bpmn.task;whiteSpace=wrap;rectStyle=rounded;size=10;taskMarker=abstract;fontSize=11;" parent="U2e4l5wQemaMT4tLWJ_u-87" vertex="1">
          <mxGeometry x="130" y="120" width="120" height="80" as="geometry" />
        </mxCell>
        <mxCell id="U2e4l5wQemaMT4tLWJ_u-92" style="edgeStyle=orthogonalEdgeStyle;rounded=0;orthogonalLoop=1;jettySize=auto;html=1;" parent="U2e4l5wQemaMT4tLWJ_u-87" target="U2e4l5wQemaMT4tLWJ_u-95" edge="1">
          <mxGeometry relative="1" as="geometry">
            <mxPoint x="730" y="160.00000000000023" as="sourcePoint" />
          </mxGeometry>
        </mxCell>
        <mxCell id="U2e4l5wQemaMT4tLWJ_u-94" style="edgeStyle=orthogonalEdgeStyle;rounded=0;orthogonalLoop=1;jettySize=auto;html=1;startArrow=none;startFill=0;endArrow=classic;endFill=1;" parent="U2e4l5wQemaMT4tLWJ_u-87" source="U2e4l5wQemaMT4tLWJ_u-95" edge="1">
          <mxGeometry relative="1" as="geometry">
            <mxPoint x="1050" y="160" as="targetPoint" />
          </mxGeometry>
        </mxCell>
        <mxCell id="U2e4l5wQemaMT4tLWJ_u-95" value="Подтвердить запись по телефону" style="points=[[0.25,0,0],[0.5,0,0],[0.75,0,0],[1,0.25,0],[1,0.5,0],[1,0.75,0],[0.75,1,0],[0.5,1,0],[0.25,1,0],[0,0.75,0],[0,0.5,0],[0,0.25,0]];shape=mxgraph.bpmn.task;whiteSpace=wrap;rectStyle=rounded;size=10;taskMarker=abstract;fontSize=11;" parent="U2e4l5wQemaMT4tLWJ_u-87" vertex="1">
          <mxGeometry x="810" y="120" width="120" height="80" as="geometry" />
        </mxCell>
        <mxCell id="U2e4l5wQemaMT4tLWJ_u-96" value="Запись отменена" style="points=[[0.145,0.145,0],[0.5,0,0],[0.855,0.145,0],[1,0.5,0],[0.855,0.855,0],[0.5,1,0],[0.145,0.855,0],[0,0.5,0]];shape=mxgraph.bpmn.event;html=1;verticalLabelPosition=bottom;labelBackgroundColor=#ffffff;verticalAlign=top;align=center;perimeter=ellipsePerimeter;outlineConnect=0;aspect=fixed;outline=end;symbol=terminate2;" parent="U2e4l5wQemaMT4tLWJ_u-87" vertex="1">
          <mxGeometry x="1494" y="240" width="50" height="50" as="geometry" />
        </mxCell>
        <mxCell id="U2e4l5wQemaMT4tLWJ_u-97" value="" style="points=[[0.145,0.145,0],[0.5,0,0],[0.855,0.145,0],[1,0.5,0],[0.855,0.855,0],[0.5,1,0],[0.145,0.855,0],[0,0.5,0]];shape=mxgraph.bpmn.event;html=1;verticalLabelPosition=bottom;labelBackgroundColor=#ffffff;verticalAlign=top;align=center;perimeter=ellipsePerimeter;outlineConnect=0;aspect=fixed;outline=boundInt;symbol=error;fontSize=24;fontColor=#000000;fillColor=#FFFFFF;" parent="U2e4l5wQemaMT4tLWJ_u-87" vertex="1">
          <mxGeometry x="220" y="100" width="50" height="50" as="geometry" />
        </mxCell>
        <mxCell id="U2e4l5wQemaMT4tLWJ_u-98" value="Нет свободного&lt;br&gt;времени&amp;nbsp;" style="text;html=1;strokeColor=none;fillColor=none;align=center;verticalAlign=middle;whiteSpace=wrap;rounded=0;labelBackgroundColor=none;fontSize=12;fontColor=#000000;" parent="U2e4l5wQemaMT4tLWJ_u-87" vertex="1">
          <mxGeometry x="160" y="70" width="60" height="30" as="geometry" />
        </mxCell>
        <mxCell id="U2e4l5wQemaMT4tLWJ_u-99" style="edgeStyle=orthogonalEdgeStyle;rounded=0;orthogonalLoop=1;jettySize=auto;html=1;" parent="U2e4l5wQemaMT4tLWJ_u-87" target="U2e4l5wQemaMT4tLWJ_u-91" edge="1">
          <mxGeometry relative="1" as="geometry">
            <mxPoint x="80" y="160" as="sourcePoint" />
          </mxGeometry>
        </mxCell>
        <mxCell id="U2e4l5wQemaMT4tLWJ_u-100" value="&lt;font style=&quot;font-size: 11px;&quot;&gt;Поступил&lt;br&gt;&amp;nbsp;звонок &amp;nbsp;&lt;/font&gt;" style="points=[[0.145,0.145,0],[0.5,0,0],[0.855,0.145,0],[1,0.5,0],[0.855,0.855,0],[0.5,1,0],[0.145,0.855,0],[0,0.5,0]];shape=mxgraph.bpmn.event;html=1;verticalLabelPosition=bottom;labelBackgroundColor=#ffffff;verticalAlign=top;align=center;perimeter=ellipsePerimeter;outlineConnect=0;aspect=fixed;outline=standard;symbol=message;" parent="U2e4l5wQemaMT4tLWJ_u-87" vertex="1">
          <mxGeometry x="30" y="135" width="50" height="50" as="geometry" />
        </mxCell>
        <mxCell id="U2e4l5wQemaMT4tLWJ_u-101" style="edgeStyle=orthogonalEdgeStyle;rounded=0;orthogonalLoop=1;jettySize=auto;html=1;entryX=0;entryY=0.5;entryDx=0;entryDy=0;entryPerimeter=0;startArrow=none;startFill=0;endArrow=classic;endFill=1;" parent="U2e4l5wQemaMT4tLWJ_u-87" source="U2e4l5wQemaMT4tLWJ_u-102" target="U2e4l5wQemaMT4tLWJ_u-96" edge="1">
          <mxGeometry relative="1" as="geometry" />
        </mxCell>
        <mxCell id="U2e4l5wQemaMT4tLWJ_u-102" value="&lt;font style=&quot;font-size: 11px;&quot;&gt;Запись отменена&lt;/font&gt;" style="points=[[0.145,0.145,0],[0.5,0,0],[0.855,0.145,0],[1,0.5,0],[0.855,0.855,0],[0.5,1,0],[0.145,0.855,0],[0,0.5,0]];shape=mxgraph.bpmn.event;html=1;verticalLabelPosition=bottom;labelBackgroundColor=#ffffff;verticalAlign=top;align=center;perimeter=ellipsePerimeter;outlineConnect=0;aspect=fixed;outline=catching;symbol=message;" parent="U2e4l5wQemaMT4tLWJ_u-87" vertex="1">
          <mxGeometry x="1275" y="240" width="50" height="50" as="geometry" />
        </mxCell>
        <mxCell id="U2e4l5wQemaMT4tLWJ_u-103" value="&lt;font style=&quot;font-size: 11px;&quot;&gt;Запись подтверждена&lt;/font&gt;" style="points=[[0.145,0.145,0],[0.5,0,0],[0.855,0.145,0],[1,0.5,0],[0.855,0.855,0],[0.5,1,0],[0.145,0.855,0],[0,0.5,0]];shape=mxgraph.bpmn.event;html=1;verticalLabelPosition=bottom;labelBackgroundColor=#ffffff;verticalAlign=top;align=center;perimeter=ellipsePerimeter;outlineConnect=0;aspect=fixed;outline=catching;symbol=message;" parent="U2e4l5wQemaMT4tLWJ_u-87" vertex="1">
          <mxGeometry x="1390" y="60" width="50" height="50" as="geometry" />
        </mxCell>
        <mxCell id="U2e4l5wQemaMT4tLWJ_u-104" style="edgeStyle=orthogonalEdgeStyle;rounded=0;orthogonalLoop=1;jettySize=auto;html=1;entryX=0;entryY=0.5;entryDx=0;entryDy=0;entryPerimeter=0;startArrow=none;startFill=0;endArrow=classic;endFill=1;exitX=0.5;exitY=0;exitDx=0;exitDy=0;exitPerimeter=0;" parent="U2e4l5wQemaMT4tLWJ_u-87" source="U2e4l5wQemaMT4tLWJ_u-108" target="U2e4l5wQemaMT4tLWJ_u-103" edge="1">
          <mxGeometry relative="1" as="geometry">
            <mxPoint x="1100" y="160" as="sourcePoint" />
          </mxGeometry>
        </mxCell>
        <mxCell id="U2e4l5wQemaMT4tLWJ_u-105" value="Да" style="edgeLabel;html=1;align=center;verticalAlign=middle;resizable=0;points=[];fontSize=11;" parent="U2e4l5wQemaMT4tLWJ_u-104" vertex="1" connectable="0">
          <mxGeometry x="-0.0627" y="1" relative="1" as="geometry">
            <mxPoint as="offset" />
          </mxGeometry>
        </mxCell>
        <mxCell id="U2e4l5wQemaMT4tLWJ_u-106" style="edgeStyle=orthogonalEdgeStyle;rounded=0;orthogonalLoop=1;jettySize=auto;html=1;entryX=0;entryY=0.5;entryDx=0;entryDy=0;entryPerimeter=0;startArrow=none;startFill=0;endArrow=classic;endFill=1;exitX=1;exitY=0.5;exitDx=0;exitDy=0;exitPerimeter=0;" parent="U2e4l5wQemaMT4tLWJ_u-87" source="U2e4l5wQemaMT4tLWJ_u-108" target="U2e4l5wQemaMT4tLWJ_u-102" edge="1">
          <mxGeometry relative="1" as="geometry">
            <mxPoint x="1075" y="185" as="sourcePoint" />
          </mxGeometry>
        </mxCell>
        <mxCell id="U2e4l5wQemaMT4tLWJ_u-107" value="Нет" style="edgeLabel;html=1;align=center;verticalAlign=middle;resizable=0;points=[];fontSize=11;" parent="U2e4l5wQemaMT4tLWJ_u-106" vertex="1" connectable="0">
          <mxGeometry x="-0.5693" y="2" relative="1" as="geometry">
            <mxPoint x="30" y="47" as="offset" />
          </mxGeometry>
        </mxCell>
        <mxCell id="U2e4l5wQemaMT4tLWJ_u-108" value="&lt;font style=&quot;font-size: 11px;&quot;&gt;Запись подтверждена?&lt;/font&gt;" style="points=[[0.25,0.25,0],[0.5,0,0],[0.75,0.25,0],[1,0.5,0],[0.75,0.75,0],[0.5,1,0],[0.25,0.75,0],[0,0.5,0]];shape=mxgraph.bpmn.gateway2;html=1;verticalLabelPosition=bottom;labelBackgroundColor=#ffffff;verticalAlign=top;align=center;perimeter=rhombusPerimeter;outlineConnect=0;outline=boundInt;symbol=multiple;" parent="U2e4l5wQemaMT4tLWJ_u-87" vertex="1">
          <mxGeometry x="1050" y="135" width="50" height="50" as="geometry" />
        </mxCell>
        <mxCell id="U2e4l5wQemaMT4tLWJ_u-175" value="&lt;font style=&quot;font-size: 11px;&quot;&gt;1 день&amp;nbsp;&lt;br&gt;до назначенного&amp;nbsp;&lt;br&gt;приёма&lt;br&gt;&lt;/font&gt;" style="points=[[0.145,0.145,0],[0.5,0,0],[0.855,0.145,0],[1,0.5,0],[0.855,0.855,0],[0.5,1,0],[0.145,0.855,0],[0,0.5,0]];shape=mxgraph.bpmn.event;html=1;verticalLabelPosition=bottom;labelBackgroundColor=#ffffff;verticalAlign=top;align=center;perimeter=ellipsePerimeter;outlineConnect=0;aspect=fixed;outline=catching;symbol=timer;fontSize=11;" parent="U2e4l5wQemaMT4tLWJ_u-87" vertex="1">
          <mxGeometry x="680" y="135" width="50" height="50" as="geometry" />
        </mxCell>
        <mxCell id="U2e4l5wQemaMT4tLWJ_u-109" value="Врач" style="swimlane;html=1;startSize=20;horizontal=0;" parent="U2e4l5wQemaMT4tLWJ_u-86" vertex="1">
          <mxGeometry y="430" width="3240" height="320" as="geometry" />
        </mxCell>
        <mxCell id="1fI-JBm5UVB0v9t7an4C-8" style="edgeStyle=orthogonalEdgeStyle;rounded=0;orthogonalLoop=1;jettySize=auto;html=1;entryX=0;entryY=0.5;entryDx=0;entryDy=0;entryPerimeter=0;exitX=1;exitY=0.5;exitDx=0;exitDy=0;exitPerimeter=0;" edge="1" parent="U2e4l5wQemaMT4tLWJ_u-109" source="B3WhDPlqiJoNv78xAguv-1" target="U2e4l5wQemaMT4tLWJ_u-117">
          <mxGeometry relative="1" as="geometry">
            <mxPoint x="1960" y="160" as="sourcePoint" />
            <mxPoint x="2089" y="159.99999999999977" as="targetPoint" />
          </mxGeometry>
        </mxCell>
        <mxCell id="1fI-JBm5UVB0v9t7an4C-21" style="edgeStyle=orthogonalEdgeStyle;rounded=0;orthogonalLoop=1;jettySize=auto;html=1;exitX=1;exitY=0.5;exitDx=0;exitDy=0;exitPerimeter=0;entryX=0;entryY=0.5;entryDx=0;entryDy=0;entryPerimeter=0;" edge="1" parent="U2e4l5wQemaMT4tLWJ_u-109" source="U2e4l5wQemaMT4tLWJ_u-117" target="U2e4l5wQemaMT4tLWJ_u-116">
          <mxGeometry relative="1" as="geometry">
            <mxPoint x="2640" y="160" as="sourcePoint" />
          </mxGeometry>
        </mxCell>
        <mxCell id="U2e4l5wQemaMT4tLWJ_u-117" value="Прохождение осмотра" style="points=[[0.25,0,0],[0.5,0,0],[0.75,0,0],[1,0.25,0],[1,0.5,0],[1,0.75,0],[0.75,1,0],[0.5,1,0],[0.25,1,0],[0,0.75,0],[0,0.5,0],[0,0.25,0]];shape=mxgraph.bpmn.task;whiteSpace=wrap;rectStyle=rounded;size=10;taskMarker=abstract;isLoopSub=1;labelBackgroundColor=#FFFFFF;fontSize=11;fontColor=#000000;fillColor=#FFFFFF;" parent="U2e4l5wQemaMT4tLWJ_u-109" vertex="1">
          <mxGeometry x="2054" y="120" width="120" height="80" as="geometry" />
        </mxCell>
        <mxCell id="B3WhDPlqiJoNv78xAguv-1" value="&lt;font style=&quot;font-size: 11px;&quot;&gt;Пациент &lt;br&gt;пришел на приём&lt;/font&gt;" style="points=[[0.145,0.145,0],[0.5,0,0],[0.855,0.145,0],[1,0.5,0],[0.855,0.855,0],[0.5,1,0],[0.145,0.855,0],[0,0.5,0]];shape=mxgraph.bpmn.event;html=1;verticalLabelPosition=bottom;labelBackgroundColor=#ffffff;verticalAlign=top;align=center;perimeter=ellipsePerimeter;outlineConnect=0;aspect=fixed;outline=catching;symbol=message;" vertex="1" parent="U2e4l5wQemaMT4tLWJ_u-109">
          <mxGeometry x="1875" y="135" width="50" height="50" as="geometry" />
        </mxCell>
        <mxCell id="1fI-JBm5UVB0v9t7an4C-16" value="Назначить лечение" style="points=[[0.25,0,0],[0.5,0,0],[0.75,0,0],[1,0.25,0],[1,0.5,0],[1,0.75,0],[0.75,1,0],[0.5,1,0],[0.25,1,0],[0,0.75,0],[0,0.5,0],[0,0.25,0]];shape=mxgraph.bpmn.task2;whiteSpace=wrap;rectStyle=rounded;size=10;html=1;container=1;expand=0;collapsible=0;taskMarker=abstract;" vertex="1" parent="U2e4l5wQemaMT4tLWJ_u-109">
          <mxGeometry x="2370" y="120" width="120" height="80" as="geometry" />
        </mxCell>
        <mxCell id="1fI-JBm5UVB0v9t7an4C-18" value="Закрытие записи в календаре" style="points=[[0.145,0.145,0],[0.5,0,0],[0.855,0.145,0],[1,0.5,0],[0.855,0.855,0],[0.5,1,0],[0.145,0.855,0],[0,0.5,0]];shape=mxgraph.bpmn.event;html=1;verticalLabelPosition=bottom;labelBackgroundColor=#ffffff;verticalAlign=top;align=center;perimeter=ellipsePerimeter;outlineConnect=0;aspect=fixed;outline=end;symbol=terminate2;" vertex="1" parent="U2e4l5wQemaMT4tLWJ_u-109">
          <mxGeometry x="2606" y="135" width="50" height="50" as="geometry" />
        </mxCell>
        <mxCell id="1fI-JBm5UVB0v9t7an4C-22" style="edgeStyle=orthogonalEdgeStyle;rounded=0;orthogonalLoop=1;jettySize=auto;html=1;exitX=1;exitY=0.5;exitDx=0;exitDy=0;exitPerimeter=0;entryX=0;entryY=0.5;entryDx=0;entryDy=0;entryPerimeter=0;" edge="1" parent="U2e4l5wQemaMT4tLWJ_u-109" source="1fI-JBm5UVB0v9t7an4C-16" target="1fI-JBm5UVB0v9t7an4C-18">
          <mxGeometry relative="1" as="geometry" />
        </mxCell>
        <mxCell id="U2e4l5wQemaMT4tLWJ_u-116" value="&lt;font style=&quot;font-size: 11px;&quot;&gt;Диагноз поставлен&lt;/font&gt;" style="points=[[0.145,0.145,0],[0.5,0,0],[0.855,0.145,0],[1,0.5,0],[0.855,0.855,0],[0.5,1,0],[0.145,0.855,0],[0,0.5,0]];shape=mxgraph.bpmn.event;html=1;verticalLabelPosition=bottom;labelBackgroundColor=#ffffff;verticalAlign=top;align=center;perimeter=ellipsePerimeter;outlineConnect=0;aspect=fixed;outline=throwing;symbol=general;" parent="U2e4l5wQemaMT4tLWJ_u-109" vertex="1">
          <mxGeometry x="2250" y="135" width="50" height="50" as="geometry" />
        </mxCell>
        <mxCell id="B3WhDPlqiJoNv78xAguv-3" style="edgeStyle=orthogonalEdgeStyle;rounded=0;orthogonalLoop=1;jettySize=auto;html=1;exitX=1;exitY=0.5;exitDx=0;exitDy=0;exitPerimeter=0;entryX=0;entryY=0.5;entryDx=0;entryDy=0;entryPerimeter=0;" edge="1" parent="U2e4l5wQemaMT4tLWJ_u-109" source="U2e4l5wQemaMT4tLWJ_u-116" target="1fI-JBm5UVB0v9t7an4C-16">
          <mxGeometry relative="1" as="geometry" />
        </mxCell>
        <mxCell id="1fI-JBm5UVB0v9t7an4C-32" style="edgeStyle=orthogonalEdgeStyle;rounded=0;orthogonalLoop=1;jettySize=auto;html=1;exitX=1;exitY=0.5;exitDx=0;exitDy=0;exitPerimeter=0;entryX=0;entryY=0.5;entryDx=0;entryDy=0;entryPerimeter=0;" edge="1" parent="U2e4l5wQemaMT4tLWJ_u-86" source="U2e4l5wQemaMT4tLWJ_u-103" target="B3WhDPlqiJoNv78xAguv-1">
          <mxGeometry relative="1" as="geometry">
            <mxPoint x="1644" y="105" as="targetPoint" />
          </mxGeometry>
        </mxCell>
        <mxCell id="U2e4l5wQemaMT4tLWJ_u-122" value="Пациент" style="swimlane;html=1;startSize=20;horizontal=0;" parent="1" vertex="1">
          <mxGeometry x="10" y="-1120" width="3240" height="450" as="geometry" />
        </mxCell>
        <mxCell id="U2e4l5wQemaMT4tLWJ_u-123" style="edgeStyle=orthogonalEdgeStyle;rounded=0;orthogonalLoop=1;jettySize=auto;html=1;entryX=0;entryY=0.5;entryDx=0;entryDy=0;entryPerimeter=0;startArrow=none;startFill=0;endArrow=classic;endFill=1;" parent="U2e4l5wQemaMT4tLWJ_u-122" source="U2e4l5wQemaMT4tLWJ_u-124" edge="1">
          <mxGeometry relative="1" as="geometry">
            <mxPoint x="295" y="170" as="targetPoint" />
          </mxGeometry>
        </mxCell>
        <mxCell id="U2e4l5wQemaMT4tLWJ_u-124" value="Записаться на приём по телефону" style="points=[[0.25,0,0],[0.5,0,0],[0.75,0,0],[1,0.25,0],[1,0.5,0],[1,0.75,0],[0.75,1,0],[0.5,1,0],[0.25,1,0],[0,0.75,0],[0,0.5,0],[0,0.25,0]];shape=mxgraph.bpmn.task;whiteSpace=wrap;rectStyle=rounded;size=10;taskMarker=abstract;fontSize=11;" parent="U2e4l5wQemaMT4tLWJ_u-122" vertex="1">
          <mxGeometry x="135" y="130" width="120" height="80" as="geometry" />
        </mxCell>
        <mxCell id="U2e4l5wQemaMT4tLWJ_u-125" style="edgeStyle=orthogonalEdgeStyle;rounded=0;orthogonalLoop=1;jettySize=auto;html=1;" parent="U2e4l5wQemaMT4tLWJ_u-122" source="U2e4l5wQemaMT4tLWJ_u-126" target="U2e4l5wQemaMT4tLWJ_u-124" edge="1">
          <mxGeometry relative="1" as="geometry" />
        </mxCell>
        <mxCell id="U2e4l5wQemaMT4tLWJ_u-126" value="" style="points=[[0.145,0.145,0],[0.5,0,0],[0.855,0.145,0],[1,0.5,0],[0.855,0.855,0],[0.5,1,0],[0.145,0.855,0],[0,0.5,0]];shape=mxgraph.bpmn.event;html=1;verticalLabelPosition=bottom;labelBackgroundColor=#ffffff;verticalAlign=top;align=center;perimeter=ellipsePerimeter;outlineConnect=0;aspect=fixed;outline=standard;symbol=general;" parent="U2e4l5wQemaMT4tLWJ_u-122" vertex="1">
          <mxGeometry x="45" y="145" width="50" height="50" as="geometry" />
        </mxCell>
        <mxCell id="U2e4l5wQemaMT4tLWJ_u-129" value="&lt;font style=&quot;font-size: 11px;&quot;&gt;Болит живот&lt;/font&gt;" style="text;html=1;strokeColor=none;fillColor=none;align=center;verticalAlign=middle;whiteSpace=wrap;rounded=0;" parent="U2e4l5wQemaMT4tLWJ_u-122" vertex="1">
          <mxGeometry x="40" y="205" width="60" height="30" as="geometry" />
        </mxCell>
        <mxCell id="U2e4l5wQemaMT4tLWJ_u-133" style="edgeStyle=orthogonalEdgeStyle;rounded=0;orthogonalLoop=1;jettySize=auto;html=1;fontSize=24;fontColor=#000000;entryX=0;entryY=0.5;entryDx=0;entryDy=0;entryPerimeter=0;" parent="U2e4l5wQemaMT4tLWJ_u-122" source="U2e4l5wQemaMT4tLWJ_u-134" target="U2e4l5wQemaMT4tLWJ_u-159" edge="1">
          <mxGeometry relative="1" as="geometry">
            <mxPoint x="695" y="110" as="targetPoint" />
          </mxGeometry>
        </mxCell>
        <mxCell id="U2e4l5wQemaMT4tLWJ_u-134" value="Записаться на приём в другую медицинскую клинику" style="points=[[0.25,0,0],[0.5,0,0],[0.75,0,0],[1,0.25,0],[1,0.5,0],[1,0.75,0],[0.75,1,0],[0.5,1,0],[0.25,1,0],[0,0.75,0],[0,0.5,0],[0,0.25,0]];shape=mxgraph.bpmn.task;whiteSpace=wrap;rectStyle=rounded;size=10;taskMarker=abstract;labelBackgroundColor=none;fontSize=11;fontColor=#000000;fillColor=#FFFFFF;" parent="U2e4l5wQemaMT4tLWJ_u-122" vertex="1">
          <mxGeometry x="495" y="70" width="120" height="80" as="geometry" />
        </mxCell>
        <mxCell id="U2e4l5wQemaMT4tLWJ_u-135" style="edgeStyle=orthogonalEdgeStyle;rounded=0;orthogonalLoop=1;jettySize=auto;html=1;entryX=0;entryY=0.5;entryDx=0;entryDy=0;entryPerimeter=0;" parent="U2e4l5wQemaMT4tLWJ_u-122" source="U2e4l5wQemaMT4tLWJ_u-136" target="U2e4l5wQemaMT4tLWJ_u-134" edge="1">
          <mxGeometry relative="1" as="geometry" />
        </mxCell>
        <mxCell id="U2e4l5wQemaMT4tLWJ_u-136" value="" style="points=[[0.145,0.145,0],[0.5,0,0],[0.855,0.145,0],[1,0.5,0],[0.855,0.855,0],[0.5,1,0],[0.145,0.855,0],[0,0.5,0]];shape=mxgraph.bpmn.event;html=1;verticalLabelPosition=bottom;labelBackgroundColor=#ffffff;verticalAlign=top;align=center;perimeter=ellipsePerimeter;outlineConnect=0;aspect=fixed;outline=catching;symbol=message;" parent="U2e4l5wQemaMT4tLWJ_u-122" vertex="1">
          <mxGeometry x="365" y="85" width="50" height="50" as="geometry" />
        </mxCell>
        <mxCell id="U2e4l5wQemaMT4tLWJ_u-139" style="edgeStyle=orthogonalEdgeStyle;rounded=0;orthogonalLoop=1;jettySize=auto;html=1;entryX=0;entryY=0.5;entryDx=0;entryDy=0;entryPerimeter=0;startArrow=none;startFill=0;endArrow=classic;endFill=1;" parent="U2e4l5wQemaMT4tLWJ_u-122" source="U2e4l5wQemaMT4tLWJ_u-140" target="U2e4l5wQemaMT4tLWJ_u-154" edge="1">
          <mxGeometry relative="1" as="geometry">
            <Array as="points">
              <mxPoint x="815" y="245" />
              <mxPoint x="815" y="125" />
            </Array>
          </mxGeometry>
        </mxCell>
        <mxCell id="U2e4l5wQemaMT4tLWJ_u-140" value="" style="points=[[0.145,0.145,0],[0.5,0,0],[0.855,0.145,0],[1,0.5,0],[0.855,0.855,0],[0.5,1,0],[0.145,0.855,0],[0,0.5,0]];shape=mxgraph.bpmn.event;html=1;verticalLabelPosition=bottom;labelBackgroundColor=#ffffff;verticalAlign=top;align=center;perimeter=ellipsePerimeter;outlineConnect=0;aspect=fixed;outline=catching;symbol=message;" parent="U2e4l5wQemaMT4tLWJ_u-122" vertex="1">
          <mxGeometry x="485" y="220" width="50" height="50" as="geometry" />
        </mxCell>
        <mxCell id="U2e4l5wQemaMT4tLWJ_u-141" style="edgeStyle=orthogonalEdgeStyle;rounded=0;orthogonalLoop=1;jettySize=auto;html=1;entryX=0;entryY=0.5;entryDx=0;entryDy=0;entryPerimeter=0;startArrow=none;startFill=0;endArrow=classic;endFill=1;exitX=0.5;exitY=0;exitDx=0;exitDy=0;exitPerimeter=0;" parent="U2e4l5wQemaMT4tLWJ_u-122" source="U2e4l5wQemaMT4tLWJ_u-155" target="U2e4l5wQemaMT4tLWJ_u-136" edge="1">
          <mxGeometry relative="1" as="geometry">
            <mxPoint x="320" y="145" as="sourcePoint" />
          </mxGeometry>
        </mxCell>
        <mxCell id="U2e4l5wQemaMT4tLWJ_u-142" style="edgeStyle=orthogonalEdgeStyle;rounded=0;orthogonalLoop=1;jettySize=auto;html=1;entryX=0;entryY=0.5;entryDx=0;entryDy=0;entryPerimeter=0;startArrow=none;startFill=0;endArrow=classic;endFill=1;exitX=1;exitY=0.5;exitDx=0;exitDy=0;exitPerimeter=0;" parent="U2e4l5wQemaMT4tLWJ_u-122" source="U2e4l5wQemaMT4tLWJ_u-155" target="U2e4l5wQemaMT4tLWJ_u-140" edge="1">
          <mxGeometry relative="1" as="geometry">
            <mxPoint x="320" y="195" as="sourcePoint" />
          </mxGeometry>
        </mxCell>
        <mxCell id="U2e4l5wQemaMT4tLWJ_u-143" style="edgeStyle=orthogonalEdgeStyle;rounded=0;orthogonalLoop=1;jettySize=auto;html=1;entryX=0;entryY=0.5;entryDx=0;entryDy=0;entryPerimeter=0;startArrow=none;startFill=0;endArrow=classic;endFill=1;" parent="U2e4l5wQemaMT4tLWJ_u-122" source="U2e4l5wQemaMT4tLWJ_u-144" target="U2e4l5wQemaMT4tLWJ_u-156" edge="1">
          <mxGeometry relative="1" as="geometry" />
        </mxCell>
        <mxCell id="U2e4l5wQemaMT4tLWJ_u-144" value="Отменить запись" style="points=[[0.25,0,0],[0.5,0,0],[0.75,0,0],[1,0.25,0],[1,0.5,0],[1,0.75,0],[0.75,1,0],[0.5,1,0],[0.25,1,0],[0,0.75,0],[0,0.5,0],[0,0.25,0]];shape=mxgraph.bpmn.task;whiteSpace=wrap;rectStyle=rounded;size=10;taskMarker=abstract;fontSize=11;" parent="U2e4l5wQemaMT4tLWJ_u-122" vertex="1">
          <mxGeometry x="1240" y="235" width="120" height="80" as="geometry" />
        </mxCell>
        <mxCell id="U2e4l5wQemaMT4tLWJ_u-145" style="edgeStyle=orthogonalEdgeStyle;rounded=0;orthogonalLoop=1;jettySize=auto;html=1;entryX=0;entryY=0.5;entryDx=0;entryDy=0;entryPerimeter=0;exitX=0.5;exitY=1;exitDx=0;exitDy=0;exitPerimeter=0;" parent="U2e4l5wQemaMT4tLWJ_u-122" source="U2e4l5wQemaMT4tLWJ_u-147" target="U2e4l5wQemaMT4tLWJ_u-144" edge="1">
          <mxGeometry relative="1" as="geometry" />
        </mxCell>
        <mxCell id="U2e4l5wQemaMT4tLWJ_u-146" value="Нет" style="edgeLabel;html=1;align=center;verticalAlign=middle;resizable=0;points=[];" parent="U2e4l5wQemaMT4tLWJ_u-145" vertex="1" connectable="0">
          <mxGeometry x="0.0399" y="1" relative="1" as="geometry">
            <mxPoint x="41" y="1" as="offset" />
          </mxGeometry>
        </mxCell>
        <mxCell id="U2e4l5wQemaMT4tLWJ_u-147" value="" style="points=[[0.25,0.25,0],[0.5,0,0],[0.75,0.25,0],[1,0.5,0],[0.75,0.75,0],[0.5,1,0],[0.25,0.75,0],[0,0.5,0]];shape=mxgraph.bpmn.gateway2;html=1;verticalLabelPosition=bottom;labelBackgroundColor=#ffffff;verticalAlign=top;align=center;perimeter=rhombusPerimeter;outlineConnect=0;outline=none;symbol=none;gwType=exclusive;" parent="U2e4l5wQemaMT4tLWJ_u-122" vertex="1">
          <mxGeometry x="1045" y="100" width="50" height="50" as="geometry" />
        </mxCell>
        <mxCell id="U2e4l5wQemaMT4tLWJ_u-148" value="&lt;font style=&quot;font-size: 11px;&quot;&gt;Подтвердить запись?&lt;/font&gt;" style="text;html=1;strokeColor=none;fillColor=none;align=center;verticalAlign=middle;whiteSpace=wrap;rounded=0;" parent="U2e4l5wQemaMT4tLWJ_u-122" vertex="1">
          <mxGeometry x="1015" y="70" width="110" height="30" as="geometry" />
        </mxCell>
        <mxCell id="1fI-JBm5UVB0v9t7an4C-1" style="edgeStyle=orthogonalEdgeStyle;rounded=0;orthogonalLoop=1;jettySize=auto;html=1;exitX=1;exitY=0.5;exitDx=0;exitDy=0;exitPerimeter=0;entryX=0;entryY=0.5;entryDx=0;entryDy=0;entryPerimeter=0;" edge="1" parent="U2e4l5wQemaMT4tLWJ_u-122" source="U2e4l5wQemaMT4tLWJ_u-150" target="1fI-JBm5UVB0v9t7an4C-3">
          <mxGeometry relative="1" as="geometry">
            <mxPoint x="1570" y="125" as="targetPoint" />
          </mxGeometry>
        </mxCell>
        <mxCell id="U2e4l5wQemaMT4tLWJ_u-150" value="Подтвердить запись" style="points=[[0.25,0,0],[0.5,0,0],[0.75,0,0],[1,0.25,0],[1,0.5,0],[1,0.75,0],[0.75,1,0],[0.5,1,0],[0.25,1,0],[0,0.75,0],[0,0.5,0],[0,0.25,0]];shape=mxgraph.bpmn.task;whiteSpace=wrap;rectStyle=rounded;size=10;taskMarker=abstract;fontSize=11;" parent="U2e4l5wQemaMT4tLWJ_u-122" vertex="1">
          <mxGeometry x="1355" y="85" width="120" height="80" as="geometry" />
        </mxCell>
        <mxCell id="U2e4l5wQemaMT4tLWJ_u-151" style="edgeStyle=orthogonalEdgeStyle;rounded=0;orthogonalLoop=1;jettySize=auto;html=1;entryX=0;entryY=0.5;entryDx=0;entryDy=0;entryPerimeter=0;exitX=1;exitY=0.5;exitDx=0;exitDy=0;exitPerimeter=0;" parent="U2e4l5wQemaMT4tLWJ_u-122" source="U2e4l5wQemaMT4tLWJ_u-147" target="U2e4l5wQemaMT4tLWJ_u-150" edge="1">
          <mxGeometry relative="1" as="geometry">
            <mxPoint x="1174.9999999999995" y="250" as="targetPoint" />
          </mxGeometry>
        </mxCell>
        <mxCell id="U2e4l5wQemaMT4tLWJ_u-152" value="Да" style="edgeLabel;html=1;align=center;verticalAlign=middle;resizable=0;points=[];" parent="U2e4l5wQemaMT4tLWJ_u-151" vertex="1" connectable="0">
          <mxGeometry x="0.1408" y="-1" relative="1" as="geometry">
            <mxPoint x="-16" y="-1" as="offset" />
          </mxGeometry>
        </mxCell>
        <mxCell id="U2e4l5wQemaMT4tLWJ_u-153" style="edgeStyle=orthogonalEdgeStyle;rounded=0;orthogonalLoop=1;jettySize=auto;html=1;startArrow=none;startFill=0;endArrow=classic;endFill=1;" parent="U2e4l5wQemaMT4tLWJ_u-122" source="U2e4l5wQemaMT4tLWJ_u-154" target="U2e4l5wQemaMT4tLWJ_u-147" edge="1">
          <mxGeometry relative="1" as="geometry" />
        </mxCell>
        <mxCell id="U2e4l5wQemaMT4tLWJ_u-154" value="" style="points=[[0.145,0.145,0],[0.5,0,0],[0.855,0.145,0],[1,0.5,0],[0.855,0.855,0],[0.5,1,0],[0.145,0.855,0],[0,0.5,0]];shape=mxgraph.bpmn.event;html=1;verticalLabelPosition=bottom;labelBackgroundColor=#ffffff;verticalAlign=top;align=center;perimeter=ellipsePerimeter;outlineConnect=0;aspect=fixed;outline=catching;symbol=message;" parent="U2e4l5wQemaMT4tLWJ_u-122" vertex="1">
          <mxGeometry x="845" y="100" width="50" height="50" as="geometry" />
        </mxCell>
        <mxCell id="U2e4l5wQemaMT4tLWJ_u-155" value="Есть &lt;br&gt;свободное время?" style="points=[[0.25,0.25,0],[0.5,0,0],[0.75,0.25,0],[1,0.5,0],[0.75,0.75,0],[0.5,1,0],[0.25,0.75,0],[0,0.5,0]];shape=mxgraph.bpmn.gateway2;html=1;verticalLabelPosition=bottom;labelBackgroundColor=#ffffff;verticalAlign=top;align=center;perimeter=rhombusPerimeter;outlineConnect=0;outline=boundInt;symbol=multiple;" parent="U2e4l5wQemaMT4tLWJ_u-122" vertex="1">
          <mxGeometry x="295" y="145" width="50" height="50" as="geometry" />
        </mxCell>
        <mxCell id="U2e4l5wQemaMT4tLWJ_u-156" value="Запись отменена" style="points=[[0.145,0.145,0],[0.5,0,0],[0.855,0.145,0],[1,0.5,0],[0.855,0.855,0],[0.5,1,0],[0.145,0.855,0],[0,0.5,0]];shape=mxgraph.bpmn.event;html=1;verticalLabelPosition=bottom;labelBackgroundColor=#ffffff;verticalAlign=top;align=center;perimeter=ellipsePerimeter;outlineConnect=0;aspect=fixed;outline=end;symbol=terminate2;" parent="U2e4l5wQemaMT4tLWJ_u-122" vertex="1">
          <mxGeometry x="1535" y="250" width="50" height="50" as="geometry" />
        </mxCell>
        <mxCell id="U2e4l5wQemaMT4tLWJ_u-157" value="&lt;font style=&quot;font-size: 11px;&quot;&gt;Нет свободного&lt;br&gt;времени&lt;/font&gt;" style="text;html=1;strokeColor=none;fillColor=none;align=center;verticalAlign=middle;whiteSpace=wrap;rounded=0;" parent="U2e4l5wQemaMT4tLWJ_u-122" vertex="1">
          <mxGeometry x="360" y="45" width="60" height="30" as="geometry" />
        </mxCell>
        <mxCell id="U2e4l5wQemaMT4tLWJ_u-158" value="&lt;span style=&quot;font-size: 11px;&quot;&gt;Записан на&amp;nbsp;&lt;/span&gt;&lt;span style=&quot;font-size: 11px; background-color: rgb(255, 255, 255);&quot;&gt;приём&lt;/span&gt;" style="text;html=1;strokeColor=none;fillColor=none;align=center;verticalAlign=middle;whiteSpace=wrap;rounded=0;" parent="U2e4l5wQemaMT4tLWJ_u-122" vertex="1">
          <mxGeometry x="480" y="180" width="60" height="30" as="geometry" />
        </mxCell>
        <mxCell id="U2e4l5wQemaMT4tLWJ_u-159" value="Записан на&amp;nbsp;приём&amp;nbsp;в&amp;nbsp;&lt;br&gt;другую клинику" style="points=[[0.145,0.145,0],[0.5,0,0],[0.855,0.145,0],[1,0.5,0],[0.855,0.855,0],[0.5,1,0],[0.145,0.855,0],[0,0.5,0]];shape=mxgraph.bpmn.event;html=1;verticalLabelPosition=bottom;labelBackgroundColor=#ffffff;verticalAlign=top;align=center;perimeter=ellipsePerimeter;outlineConnect=0;aspect=fixed;outline=end;symbol=terminate2;fontSize=11;" parent="U2e4l5wQemaMT4tLWJ_u-122" vertex="1">
          <mxGeometry x="700" y="85" width="50" height="50" as="geometry" />
        </mxCell>
        <mxCell id="U2e4l5wQemaMT4tLWJ_u-160" value="&lt;font style=&quot;font-size: 11px;&quot;&gt;Звонок для подтверждения записи&amp;nbsp;&lt;/font&gt;" style="text;html=1;strokeColor=none;fillColor=none;align=center;verticalAlign=middle;whiteSpace=wrap;rounded=0;" parent="U2e4l5wQemaMT4tLWJ_u-122" vertex="1">
          <mxGeometry x="815" y="55" width="110" height="30" as="geometry" />
        </mxCell>
        <mxCell id="1fI-JBm5UVB0v9t7an4C-2" value="Приход на прием" style="points=[[0.25,0,0],[0.5,0,0],[0.75,0,0],[1,0.25,0],[1,0.5,0],[1,0.75,0],[0.75,1,0],[0.5,1,0],[0.25,1,0],[0,0.75,0],[0,0.5,0],[0,0.25,0]];shape=mxgraph.bpmn.task;whiteSpace=wrap;rectStyle=rounded;size=10;taskMarker=abstract;fontSize=11;" vertex="1" parent="U2e4l5wQemaMT4tLWJ_u-122">
          <mxGeometry x="1840" y="85" width="120" height="80" as="geometry" />
        </mxCell>
        <mxCell id="1fI-JBm5UVB0v9t7an4C-3" value="&lt;font style=&quot;font-size: 11px;&quot;&gt;Наступление время приема&lt;/font&gt;" style="points=[[0.145,0.145,0],[0.5,0,0],[0.855,0.145,0],[1,0.5,0],[0.855,0.855,0],[0.5,1,0],[0.145,0.855,0],[0,0.5,0]];shape=mxgraph.bpmn.event;html=1;verticalLabelPosition=bottom;labelBackgroundColor=#ffffff;verticalAlign=top;align=center;perimeter=ellipsePerimeter;outlineConnect=0;aspect=fixed;outline=catching;symbol=timer;fontSize=11;" vertex="1" parent="U2e4l5wQemaMT4tLWJ_u-122">
          <mxGeometry x="1644" y="100" width="50" height="50" as="geometry" />
        </mxCell>
        <mxCell id="1fI-JBm5UVB0v9t7an4C-4" style="edgeStyle=orthogonalEdgeStyle;rounded=0;orthogonalLoop=1;jettySize=auto;html=1;exitX=1;exitY=0.5;exitDx=0;exitDy=0;exitPerimeter=0;entryX=0;entryY=0.5;entryDx=0;entryDy=0;entryPerimeter=0;" edge="1" parent="U2e4l5wQemaMT4tLWJ_u-122" source="1fI-JBm5UVB0v9t7an4C-3" target="1fI-JBm5UVB0v9t7an4C-2">
          <mxGeometry relative="1" as="geometry" />
        </mxCell>
        <mxCell id="1fI-JBm5UVB0v9t7an4C-25" value="Получение рекомендаций по лечению" style="points=[[0.145,0.145,0],[0.5,0,0],[0.855,0.145,0],[1,0.5,0],[0.855,0.855,0],[0.5,1,0],[0.145,0.855,0],[0,0.5,0]];shape=mxgraph.bpmn.event;html=1;verticalLabelPosition=bottom;labelBackgroundColor=#ffffff;verticalAlign=top;align=center;perimeter=ellipsePerimeter;outlineConnect=0;aspect=fixed;outline=catching;symbol=message;" vertex="1" parent="U2e4l5wQemaMT4tLWJ_u-122">
          <mxGeometry x="2405" y="100" width="50" height="50" as="geometry" />
        </mxCell>
        <mxCell id="1fI-JBm5UVB0v9t7an4C-27" value="Завершение приема" style="points=[[0.145,0.145,0],[0.5,0,0],[0.855,0.145,0],[1,0.5,0],[0.855,0.855,0],[0.5,1,0],[0.145,0.855,0],[0,0.5,0]];shape=mxgraph.bpmn.event;html=1;verticalLabelPosition=bottom;labelBackgroundColor=#ffffff;verticalAlign=top;align=center;perimeter=ellipsePerimeter;outlineConnect=0;aspect=fixed;outline=end;symbol=terminate2;" vertex="1" parent="U2e4l5wQemaMT4tLWJ_u-122">
          <mxGeometry x="2611" y="100" width="50" height="50" as="geometry" />
        </mxCell>
        <mxCell id="1fI-JBm5UVB0v9t7an4C-28" style="edgeStyle=orthogonalEdgeStyle;rounded=0;orthogonalLoop=1;jettySize=auto;html=1;exitX=1;exitY=0.5;exitDx=0;exitDy=0;exitPerimeter=0;entryX=0;entryY=0.5;entryDx=0;entryDy=0;entryPerimeter=0;" edge="1" parent="U2e4l5wQemaMT4tLWJ_u-122" source="1fI-JBm5UVB0v9t7an4C-25" target="1fI-JBm5UVB0v9t7an4C-27">
          <mxGeometry relative="1" as="geometry" />
        </mxCell>
        <mxCell id="1fI-JBm5UVB0v9t7an4C-24" style="edgeStyle=orthogonalEdgeStyle;rounded=0;orthogonalLoop=1;jettySize=auto;html=1;exitX=1;exitY=0.5;exitDx=0;exitDy=0;exitPerimeter=0;entryX=0;entryY=0.5;entryDx=0;entryDy=0;entryPerimeter=0;" edge="1" parent="U2e4l5wQemaMT4tLWJ_u-122" source="1fI-JBm5UVB0v9t7an4C-2" target="1fI-JBm5UVB0v9t7an4C-25">
          <mxGeometry relative="1" as="geometry">
            <mxPoint x="2064" y="125" as="targetPoint" />
          </mxGeometry>
        </mxCell>
        <mxCell id="U2e4l5wQemaMT4tLWJ_u-162" style="edgeStyle=orthogonalEdgeStyle;rounded=0;orthogonalLoop=1;jettySize=auto;html=1;dashed=1;exitX=0.5;exitY=1;exitDx=0;exitDy=0;exitPerimeter=0;entryX=0.5;entryY=0;entryDx=0;entryDy=0;entryPerimeter=0;startArrow=oval;startFill=0;endArrow=block;endFill=0;" parent="1" source="U2e4l5wQemaMT4tLWJ_u-124" edge="1">
          <mxGeometry relative="1" as="geometry">
            <mxPoint x="65" y="-464.99999999999955" as="targetPoint" />
            <Array as="points">
              <mxPoint x="200" y="-910" />
              <mxPoint x="200" y="-810" />
              <mxPoint x="65" y="-810" />
            </Array>
          </mxGeometry>
        </mxCell>
        <mxCell id="U2e4l5wQemaMT4tLWJ_u-165" style="edgeStyle=orthogonalEdgeStyle;rounded=0;orthogonalLoop=1;jettySize=auto;html=1;fontSize=24;fontColor=#000000;entryX=0.5;entryY=1;entryDx=0;entryDy=0;entryPerimeter=0;dashed=1;startArrow=oval;startFill=0;endArrow=block;endFill=0;" parent="1" source="U2e4l5wQemaMT4tLWJ_u-97" target="U2e4l5wQemaMT4tLWJ_u-136" edge="1">
          <mxGeometry relative="1" as="geometry">
            <Array as="points">
              <mxPoint x="245" y="-730" />
              <mxPoint x="400" y="-730" />
            </Array>
            <mxPoint x="500" y="-290" as="targetPoint" />
          </mxGeometry>
        </mxCell>
        <mxCell id="U2e4l5wQemaMT4tLWJ_u-166" style="edgeStyle=orthogonalEdgeStyle;rounded=0;orthogonalLoop=1;jettySize=auto;html=1;entryX=0.5;entryY=1;entryDx=0;entryDy=0;entryPerimeter=0;startArrow=oval;startFill=0;endArrow=block;endFill=0;dashed=1;" parent="1" source="U2e4l5wQemaMT4tLWJ_u-89" target="U2e4l5wQemaMT4tLWJ_u-140" edge="1">
          <mxGeometry relative="1" as="geometry" />
        </mxCell>
        <mxCell id="U2e4l5wQemaMT4tLWJ_u-167" style="edgeStyle=orthogonalEdgeStyle;rounded=0;orthogonalLoop=1;jettySize=auto;html=1;entryX=0.5;entryY=1;entryDx=0;entryDy=0;entryPerimeter=0;startArrow=oval;startFill=0;endArrow=block;endFill=0;dashed=1;" parent="1" source="U2e4l5wQemaMT4tLWJ_u-95" target="U2e4l5wQemaMT4tLWJ_u-154" edge="1">
          <mxGeometry relative="1" as="geometry" />
        </mxCell>
        <mxCell id="U2e4l5wQemaMT4tLWJ_u-168" style="edgeStyle=orthogonalEdgeStyle;rounded=0;orthogonalLoop=1;jettySize=auto;html=1;dashed=1;startArrow=oval;startFill=0;endArrow=block;endFill=0;exitX=0.5;exitY=1;exitDx=0;exitDy=0;exitPerimeter=0;" parent="1" source="U2e4l5wQemaMT4tLWJ_u-150" target="U2e4l5wQemaMT4tLWJ_u-103" edge="1">
          <mxGeometry relative="1" as="geometry" />
        </mxCell>
        <mxCell id="U2e4l5wQemaMT4tLWJ_u-169" style="edgeStyle=orthogonalEdgeStyle;rounded=0;orthogonalLoop=1;jettySize=auto;html=1;dashed=1;startArrow=oval;startFill=0;endArrow=block;endFill=0;" parent="1" source="U2e4l5wQemaMT4tLWJ_u-144" target="U2e4l5wQemaMT4tLWJ_u-102" edge="1">
          <mxGeometry relative="1" as="geometry" />
        </mxCell>
        <mxCell id="1fI-JBm5UVB0v9t7an4C-13" style="edgeStyle=orthogonalEdgeStyle;rounded=0;orthogonalLoop=1;jettySize=auto;html=1;dashed=1;startArrow=oval;startFill=0;endArrow=block;endFill=0;exitX=0.5;exitY=1;exitDx=0;exitDy=0;exitPerimeter=0;entryX=0.5;entryY=0;entryDx=0;entryDy=0;entryPerimeter=0;" edge="1" parent="1" source="1fI-JBm5UVB0v9t7an4C-2" target="B3WhDPlqiJoNv78xAguv-1">
          <mxGeometry relative="1" as="geometry">
            <mxPoint x="1830" y="-930" as="sourcePoint" />
            <mxPoint x="1910" y="-100" as="targetPoint" />
          </mxGeometry>
        </mxCell>
        <mxCell id="B3WhDPlqiJoNv78xAguv-2" style="edgeStyle=orthogonalEdgeStyle;rounded=0;orthogonalLoop=1;jettySize=auto;html=1;exitX=0.5;exitY=0;exitDx=0;exitDy=0;exitPerimeter=0;endArrow=block;endFill=0;dashed=1;startArrow=oval;startFill=0;" edge="1" parent="1" source="1fI-JBm5UVB0v9t7an4C-16" target="1fI-JBm5UVB0v9t7an4C-25">
          <mxGeometry relative="1" as="geometry" />
        </mxCell>
      </root>
    </mxGraphModel>
  </diagram>
  <diagram id="anxewemBDnC__M29I5zN" name="UML State Machine Diagram">
    <mxGraphModel dx="3137" dy="2551" grid="1" gridSize="10" guides="1" tooltips="1" connect="1" arrows="1" fold="1" page="1" pageScale="1" pageWidth="827" pageHeight="1169" math="0" shadow="0">
      <root>
        <mxCell id="0" />
        <mxCell id="1" parent="0" />
        <mxCell id="k36WYlumH__hazgdGmS9-1" value="&lt;h1&gt;&lt;font style=&quot;font-size: 40px;&quot;&gt;Задание&lt;/font&gt;&lt;/h1&gt;&lt;p style=&quot;font-size: 20px;&quot;&gt;&lt;font style=&quot;font-size: 20px;&quot;&gt;Составьте диаграмму состояний в нотации UML State Machine Diagram.&lt;/font&gt;&lt;/p&gt;&lt;p style=&quot;font-size: 20px;&quot;&gt;&lt;font style=&quot;font-size: 20px;&quot;&gt;1. Проанализируйте состояния представленные в заметках Айгуль по описанию процесса. Добавьте полученные состояния на вашу диаграмму.&amp;nbsp;&lt;/font&gt;&lt;/p&gt;&lt;p style=&quot;font-size: 20px;&quot;&gt;&lt;font style=&quot;font-size: 20px;&quot;&gt;2. Отметьте начальное и конечное состояние системы.&lt;/font&gt;&lt;/p&gt;&lt;p style=&quot;font-size: 20px;&quot;&gt;&lt;font style=&quot;font-size: 20px;&quot;&gt;3. Изобразите переходы между состояниями, не забудьте подписать события, по которому объекты меняют свое состояние.&lt;/font&gt;&lt;/p&gt;&lt;p style=&quot;font-size: 20px;&quot;&gt;&lt;font style=&quot;font-size: 20px;&quot;&gt;4.Если вам не хватает информации в задании, то вы можете ее самостоятельно добавить в виде допущения.&lt;/font&gt;&lt;/p&gt;&lt;p style=&quot;font-size: 20px;&quot;&gt;&lt;i&gt;&lt;font style=&quot;font-size: 20px;&quot;&gt;Помните, что вы всегда можете оставить дополнительную информацию со своими размышлениями ревьюеру в виде пометок. Просто возьмите одну из карточек ниже.&amp;nbsp;&lt;/font&gt;&lt;/i&gt;&lt;/p&gt;&lt;p style=&quot;font-size: 20px;&quot;&gt;&lt;font style=&quot;font-size: 20px;&quot;&gt;5. Когда диаграмма состояний будет готова, переходите к вкладке №3 для составления диаграммы BPMN с учетом автоматизации записи на прием в приложении.&lt;/font&gt;&lt;/p&gt;" style="text;html=1;strokeColor=#82b366;fillColor=#d5e8d4;spacing=5;spacingTop=-20;whiteSpace=wrap;overflow=hidden;rounded=0;fontSize=16;" parent="1" vertex="1">
          <mxGeometry x="-800" y="-1140" width="600" height="640" as="geometry" />
        </mxCell>
        <mxCell id="qL6UWWnYmn7WZIKeRnSm-1" value="Подтвержден" style="points=[[0.25,0,0],[0.5,0,0],[0.75,0,0],[1,0.25,0],[1,0.5,0],[1,0.75,0],[0.75,1,0],[0.5,1,0],[0.25,1,0],[0,0.75,0],[0,0.5,0],[0,0.25,0]];shape=mxgraph.bpmn.task2;whiteSpace=wrap;rectStyle=rounded;size=10;html=1;container=1;expand=0;collapsible=0;taskMarker=abstract;" vertex="1" parent="1">
          <mxGeometry x="670" y="-950" width="120" height="80" as="geometry" />
        </mxCell>
        <mxCell id="6cIUHV_YHJ_uZuG8sNOl-24" style="edgeStyle=orthogonalEdgeStyle;rounded=0;orthogonalLoop=1;jettySize=auto;html=1;exitX=1;exitY=0.5;exitDx=0;exitDy=0;exitPerimeter=0;" edge="1" parent="1" source="s2UpsBICvqGaM1KIbFux-3" target="6cIUHV_YHJ_uZuG8sNOl-18">
          <mxGeometry relative="1" as="geometry" />
        </mxCell>
        <mxCell id="s2UpsBICvqGaM1KIbFux-3" value="Отменен" style="points=[[0.25,0,0],[0.5,0,0],[0.75,0,0],[1,0.25,0],[1,0.5,0],[1,0.75,0],[0.75,1,0],[0.5,1,0],[0.25,1,0],[0,0.75,0],[0,0.5,0],[0,0.25,0]];shape=mxgraph.bpmn.task2;whiteSpace=wrap;rectStyle=rounded;size=10;html=1;container=1;expand=0;collapsible=0;taskMarker=abstract;" vertex="1" parent="1">
          <mxGeometry x="360" y="-700" width="120" height="80" as="geometry" />
        </mxCell>
        <mxCell id="6cIUHV_YHJ_uZuG8sNOl-1" value="Ожидает подтверждения" style="points=[[0.25,0,0],[0.5,0,0],[0.75,0,0],[1,0.25,0],[1,0.5,0],[1,0.75,0],[0.75,1,0],[0.5,1,0],[0.25,1,0],[0,0.75,0],[0,0.5,0],[0,0.25,0]];shape=mxgraph.bpmn.task2;whiteSpace=wrap;rectStyle=rounded;size=10;html=1;container=1;expand=0;collapsible=0;taskMarker=abstract;" vertex="1" parent="1">
          <mxGeometry x="360" y="-950" width="120" height="80" as="geometry" />
        </mxCell>
        <mxCell id="6cIUHV_YHJ_uZuG8sNOl-22" style="edgeStyle=orthogonalEdgeStyle;rounded=0;orthogonalLoop=1;jettySize=auto;html=1;exitX=1;exitY=0.5;exitDx=0;exitDy=0;exitPerimeter=0;" edge="1" parent="1" source="6cIUHV_YHJ_uZuG8sNOl-3" target="6cIUHV_YHJ_uZuG8sNOl-4">
          <mxGeometry relative="1" as="geometry" />
        </mxCell>
        <mxCell id="6cIUHV_YHJ_uZuG8sNOl-32" value="Врач закончил осмотр" style="edgeLabel;html=1;align=center;verticalAlign=middle;resizable=0;points=[];" vertex="1" connectable="0" parent="6cIUHV_YHJ_uZuG8sNOl-22">
          <mxGeometry x="-0.1088" y="-3" relative="1" as="geometry">
            <mxPoint x="15" y="-33" as="offset" />
          </mxGeometry>
        </mxCell>
        <mxCell id="6cIUHV_YHJ_uZuG8sNOl-3" value="В работе" style="points=[[0.25,0,0],[0.5,0,0],[0.75,0,0],[1,0.25,0],[1,0.5,0],[1,0.75,0],[0.75,1,0],[0.5,1,0],[0.25,1,0],[0,0.75,0],[0,0.5,0],[0,0.25,0]];shape=mxgraph.bpmn.task2;whiteSpace=wrap;rectStyle=rounded;size=10;html=1;container=1;expand=0;collapsible=0;taskMarker=abstract;" vertex="1" parent="1">
          <mxGeometry x="980" y="-950" width="120" height="80" as="geometry" />
        </mxCell>
        <mxCell id="6cIUHV_YHJ_uZuG8sNOl-23" style="edgeStyle=orthogonalEdgeStyle;rounded=0;orthogonalLoop=1;jettySize=auto;html=1;exitX=1;exitY=0.5;exitDx=0;exitDy=0;exitPerimeter=0;entryX=0;entryY=0.5;entryDx=0;entryDy=0;" edge="1" parent="1" source="6cIUHV_YHJ_uZuG8sNOl-4" target="6cIUHV_YHJ_uZuG8sNOl-6">
          <mxGeometry relative="1" as="geometry" />
        </mxCell>
        <mxCell id="6cIUHV_YHJ_uZuG8sNOl-4" value="Завершён" style="points=[[0.25,0,0],[0.5,0,0],[0.75,0,0],[1,0.25,0],[1,0.5,0],[1,0.75,0],[0.75,1,0],[0.5,1,0],[0.25,1,0],[0,0.75,0],[0,0.5,0],[0,0.25,0]];shape=mxgraph.bpmn.task2;whiteSpace=wrap;rectStyle=rounded;size=10;html=1;container=1;expand=0;collapsible=0;taskMarker=abstract;" vertex="1" parent="1">
          <mxGeometry x="1290" y="-950" width="120" height="80" as="geometry" />
        </mxCell>
        <mxCell id="6cIUHV_YHJ_uZuG8sNOl-6" value="" style="ellipse;html=1;shape=endState;fillColor=#000000;strokeColor=light-dark(#000000, #ff9090);" vertex="1" parent="1">
          <mxGeometry x="1570" y="-940" width="60" height="60" as="geometry" />
        </mxCell>
        <mxCell id="6cIUHV_YHJ_uZuG8sNOl-11" value="" style="ellipse;html=1;shape=endState;fillColor=#000000;strokeColor=none;" vertex="1" parent="1">
          <mxGeometry x="-120" y="-940" width="60" height="60" as="geometry" />
        </mxCell>
        <mxCell id="6cIUHV_YHJ_uZuG8sNOl-18" value="" style="html=1;shape=mxgraph.sysml.flowFinal;strokeWidth=1;verticalLabelPosition=bottom;verticalAlignment=top;" vertex="1" parent="1">
          <mxGeometry x="700" y="-690" width="60" height="60" as="geometry" />
        </mxCell>
        <mxCell id="6cIUHV_YHJ_uZuG8sNOl-19" style="edgeStyle=orthogonalEdgeStyle;rounded=0;orthogonalLoop=1;jettySize=auto;html=1;exitX=1;exitY=0.5;exitDx=0;exitDy=0;entryX=0;entryY=0.5;entryDx=0;entryDy=0;entryPerimeter=0;" edge="1" parent="1" source="6cIUHV_YHJ_uZuG8sNOl-11" target="6cIUHV_YHJ_uZuG8sNOl-1">
          <mxGeometry relative="1" as="geometry" />
        </mxCell>
        <mxCell id="6cIUHV_YHJ_uZuG8sNOl-28" value="&lt;span style=&quot;font-size: 12px; background-color: rgb(251, 251, 251);&quot;&gt;Администратор&lt;/span&gt;&lt;br style=&quot;font-size: 12px; background-color: rgb(251, 251, 251);&quot;&gt;&lt;span style=&quot;font-size: 12px; background-color: rgb(251, 251, 251);&quot;&gt;создает запись&lt;/span&gt;&lt;br style=&quot;font-size: 12px; background-color: rgb(251, 251, 251);&quot;&gt;&lt;span style=&quot;font-size: 12px; background-color: rgb(251, 251, 251);&quot;&gt;в календаре&lt;/span&gt;" style="edgeLabel;html=1;align=center;verticalAlign=middle;resizable=0;points=[];" vertex="1" connectable="0" parent="6cIUHV_YHJ_uZuG8sNOl-19">
          <mxGeometry x="0.725" relative="1" as="geometry">
            <mxPoint x="-42" y="-40" as="offset" />
          </mxGeometry>
        </mxCell>
        <mxCell id="6cIUHV_YHJ_uZuG8sNOl-20" style="edgeStyle=orthogonalEdgeStyle;rounded=0;orthogonalLoop=1;jettySize=auto;html=1;exitX=1;exitY=0.5;exitDx=0;exitDy=0;exitPerimeter=0;entryX=0;entryY=0.5;entryDx=0;entryDy=0;entryPerimeter=0;" edge="1" parent="1" source="6cIUHV_YHJ_uZuG8sNOl-1" target="qL6UWWnYmn7WZIKeRnSm-1">
          <mxGeometry relative="1" as="geometry" />
        </mxCell>
        <mxCell id="6cIUHV_YHJ_uZuG8sNOl-29" value="Пациент подтвердил&amp;nbsp;&lt;div&gt;посещение&amp;nbsp;&lt;/div&gt;" style="edgeLabel;html=1;align=center;verticalAlign=middle;resizable=0;points=[];" vertex="1" connectable="0" parent="6cIUHV_YHJ_uZuG8sNOl-20">
          <mxGeometry x="-0.1526" y="-1" relative="1" as="geometry">
            <mxPoint x="19" y="-31" as="offset" />
          </mxGeometry>
        </mxCell>
        <mxCell id="6cIUHV_YHJ_uZuG8sNOl-21" style="edgeStyle=orthogonalEdgeStyle;rounded=0;orthogonalLoop=1;jettySize=auto;html=1;exitX=1;exitY=0.5;exitDx=0;exitDy=0;exitPerimeter=0;entryX=0;entryY=0.5;entryDx=0;entryDy=0;entryPerimeter=0;" edge="1" parent="1" source="qL6UWWnYmn7WZIKeRnSm-1" target="6cIUHV_YHJ_uZuG8sNOl-3">
          <mxGeometry relative="1" as="geometry" />
        </mxCell>
        <mxCell id="6cIUHV_YHJ_uZuG8sNOl-31" value="Врач начал осмотр" style="edgeLabel;html=1;align=center;verticalAlign=middle;resizable=0;points=[];" vertex="1" connectable="0" parent="6cIUHV_YHJ_uZuG8sNOl-21">
          <mxGeometry x="-0.0386" y="-2" relative="1" as="geometry">
            <mxPoint y="-32" as="offset" />
          </mxGeometry>
        </mxCell>
        <mxCell id="6cIUHV_YHJ_uZuG8sNOl-26" style="edgeStyle=orthogonalEdgeStyle;rounded=0;orthogonalLoop=1;jettySize=auto;html=1;exitX=0.5;exitY=1;exitDx=0;exitDy=0;exitPerimeter=0;entryX=0.5;entryY=0;entryDx=0;entryDy=0;entryPerimeter=0;" edge="1" parent="1" source="6cIUHV_YHJ_uZuG8sNOl-1" target="s2UpsBICvqGaM1KIbFux-3">
          <mxGeometry relative="1" as="geometry" />
        </mxCell>
        <mxCell id="6cIUHV_YHJ_uZuG8sNOl-30" value="Пациент отменил&lt;div&gt;посещение&amp;nbsp;&lt;/div&gt;" style="edgeLabel;html=1;align=center;verticalAlign=middle;resizable=0;points=[];" vertex="1" connectable="0" parent="6cIUHV_YHJ_uZuG8sNOl-26">
          <mxGeometry x="-0.0882" relative="1" as="geometry">
            <mxPoint as="offset" />
          </mxGeometry>
        </mxCell>
        <mxCell id="6cIUHV_YHJ_uZuG8sNOl-27" value="Создан" style="points=[[0.25,0,0],[0.5,0,0],[0.75,0,0],[1,0.25,0],[1,0.5,0],[1,0.75,0],[0.75,1,0],[0.5,1,0],[0.25,1,0],[0,0.75,0],[0,0.5,0],[0,0.25,0]];shape=mxgraph.bpmn.task2;whiteSpace=wrap;rectStyle=rounded;size=10;html=1;container=1;expand=0;collapsible=0;taskMarker=abstract;" vertex="1" parent="1">
          <mxGeometry x="50" y="-950" width="120" height="80" as="geometry" />
        </mxCell>
      </root>
    </mxGraphModel>
  </diagram>
  <diagram id="hYoqlKqIXTMq-99qZDfW" name="BPMN TO-BE">
    <mxGraphModel dx="3347" dy="2676" grid="1" gridSize="10" guides="1" tooltips="1" connect="1" arrows="1" fold="1" page="1" pageScale="1" pageWidth="827" pageHeight="1169" math="0" shadow="0">
      <root>
        <mxCell id="0" />
        <mxCell id="1" parent="0" />
        <mxCell id="fG3Fj9UThi-FpCICufKl-1" value="&lt;h1&gt;&lt;font style=&quot;font-size: 40px;&quot;&gt;Задание&lt;/font&gt;&lt;/h1&gt;&lt;p style=&quot;font-size: 20px;&quot;&gt;&lt;font style=&quot;font-size: 20px;&quot;&gt;Теперь необходимо составить диаграмму бизнес-процесса с учетом автоматизации записи на приём к врачу в нотации BPMN.&lt;/font&gt;&lt;/p&gt;&lt;p style=&quot;font-size: 20px;&quot;&gt;&lt;font style=&quot;font-size: 20px;&quot;&gt;1. Проанализируйте диаграмму процесса AS-IS на вкладке №1.&amp;nbsp;&lt;/font&gt;&lt;/p&gt;&lt;p style=&quot;font-size: 20px;&quot;&gt;&lt;font style=&quot;font-size: 20px;&quot;&gt;2. Вам необходимо составить диаграмму TO-BE в нотации BPMN при этом учесть потребность клиники в создании нового удобного и функционального приложения для пациентов, в котором необходимо реализовать запись на приём к врачу.&lt;/font&gt;&lt;/p&gt;&lt;p style=&quot;font-size: 20px;&quot;&gt;&lt;font style=&quot;font-size: 20px;&quot;&gt;3. Начните составление диаграммы с выделения ролей. Возьмите за основу диаграмму AS-IS, с которой вы работали на вкладке №1.&lt;/font&gt;&lt;/p&gt;&lt;p style=&quot;font-size: 20px;&quot;&gt;&lt;font style=&quot;font-size: 20px;&quot;&gt;&lt;i&gt;Подсказка: роль Администратора в диаграмме TO-BE должна отсутствовать.&amp;nbsp;&lt;/i&gt;&lt;/font&gt;&lt;/p&gt;&lt;p style=&quot;font-size: 20px;&quot;&gt;&lt;font style=&quot;font-size: 20px;&quot;&gt;4. Ниже вам представлены задачи, события и шлюзы, который вы можете использовать в диаграмме. Вам необходимо в правильной последовательности расставить представленные элементы и корректно соединить потоками.&lt;/font&gt;&lt;/p&gt;&lt;p style=&quot;font-size: 20px;&quot;&gt;&lt;font style=&quot;font-size: 20px;&quot;&gt;5.&amp;nbsp;&lt;/font&gt;Если вам не хватает информации в задании, то вы можете ее самостоятельно добавить в виде допущения.&lt;/p&gt;&lt;p style=&quot;font-size: 20px;&quot;&gt;&lt;font style=&quot;font-size: 20px;&quot;&gt;&lt;i&gt;Помните, что вы всегда можете оставить дополнительную информацию со своими размышлениями ревьюеру в виде пометок. Просто возьмите одну из карточек ниже.&amp;nbsp;&lt;/i&gt;&lt;br&gt;&lt;/font&gt;&lt;/p&gt;&lt;p style=&quot;font-size: 20px;&quot;&gt;&lt;font style=&quot;font-size: 20px;&quot;&gt;6. Готовый файл со всеми вкладками сохраните в формате .drawio и отправьте ревьюеру на проверку.&lt;/font&gt;&lt;/p&gt;&lt;font style=&quot;font-size: 20px;&quot;&gt;&lt;br&gt;&lt;/font&gt;&lt;p style=&quot;font-size: 20px;&quot;&gt;&lt;br&gt;&lt;/p&gt;" style="text;html=1;strokeColor=#82b366;fillColor=#d5e8d4;spacing=5;spacingTop=-20;whiteSpace=wrap;overflow=hidden;rounded=0;fontSize=16;" parent="1" vertex="1">
          <mxGeometry x="-800" y="-1140" width="650" height="880" as="geometry" />
        </mxCell>
        <mxCell id="8AS6pjPPewD20Yihxh6A-1" value="Медицинская клиника&amp;nbsp;&lt;span style=&quot;text-align: start; fill: rgb(144, 101, 176);&quot; data-reactroot=&quot;&quot; class=&quot;notion-enable-hover&quot; data-token-index=&quot;0&quot;&gt;«Вита» имени Е.Л. Яницкой&lt;/span&gt;" style="swimlane;html=1;childLayout=stackLayout;resizeParent=1;resizeParentMax=0;horizontal=1;startSize=20;horizontalStack=0;" vertex="1" parent="1">
          <mxGeometry x="-90" y="-620" width="4520" height="340" as="geometry" />
        </mxCell>
        <mxCell id="8AS6pjPPewD20Yihxh6A-24" value="Врач" style="swimlane;html=1;startSize=20;horizontal=0;" vertex="1" parent="8AS6pjPPewD20Yihxh6A-1">
          <mxGeometry y="20" width="4520" height="320" as="geometry" />
        </mxCell>
        <mxCell id="ZUP1OzC_5cRaVZ1VSMOz-7" value="Принять пациента " style="points=[[0.25,0,0],[0.5,0,0],[0.75,0,0],[1,0.25,0],[1,0.5,0],[1,0.75,0],[0.75,1,0],[0.5,1,0],[0.25,1,0],[0,0.75,0],[0,0.5,0],[0,0.25,0]];shape=mxgraph.bpmn.task;whiteSpace=wrap;rectStyle=rounded;size=10;taskMarker=abstract;fontSize=11;" parent="8AS6pjPPewD20Yihxh6A-24" vertex="1">
          <mxGeometry x="2710" y="95" width="120" height="80" as="geometry" />
        </mxCell>
        <mxCell id="ZUP1OzC_5cRaVZ1VSMOz-11" value="Поставить диагноз" style="points=[[0.25,0,0],[0.5,0,0],[0.75,0,0],[1,0.25,0],[1,0.5,0],[1,0.75,0],[0.75,1,0],[0.5,1,0],[0.25,1,0],[0,0.75,0],[0,0.5,0],[0,0.25,0]];shape=mxgraph.bpmn.task;whiteSpace=wrap;rectStyle=rounded;size=10;taskMarker=abstract;isLoopSub=1;labelBackgroundColor=#FFFFFF;fontSize=11;fontColor=#000000;fillColor=#FFFFFF;" parent="8AS6pjPPewD20Yihxh6A-24" vertex="1">
          <mxGeometry x="2985" y="95" width="120" height="80" as="geometry" />
        </mxCell>
        <mxCell id="ZUP1OzC_5cRaVZ1VSMOz-8" value="Назначить лечение" style="points=[[0.25,0,0],[0.5,0,0],[0.75,0,0],[1,0.25,0],[1,0.5,0],[1,0.75,0],[0.75,1,0],[0.5,1,0],[0.25,1,0],[0,0.75,0],[0,0.5,0],[0,0.25,0]];shape=mxgraph.bpmn.task;whiteSpace=wrap;rectStyle=rounded;size=10;taskMarker=abstract;fontSize=11;" parent="8AS6pjPPewD20Yihxh6A-24" vertex="1">
          <mxGeometry x="3440" y="95" width="120" height="80" as="geometry" />
        </mxCell>
        <mxCell id="ZUP1OzC_5cRaVZ1VSMOz-10" value="&lt;font style=&quot;font-size: 11px;&quot;&gt;Диагноз поставлен&lt;/font&gt;" style="points=[[0.145,0.145,0],[0.5,0,0],[0.855,0.145,0],[1,0.5,0],[0.855,0.855,0],[0.5,1,0],[0.145,0.855,0],[0,0.5,0]];shape=mxgraph.bpmn.event;html=1;verticalLabelPosition=bottom;labelBackgroundColor=#ffffff;verticalAlign=top;align=center;perimeter=ellipsePerimeter;outlineConnect=0;aspect=fixed;outline=throwing;symbol=general;" parent="8AS6pjPPewD20Yihxh6A-24" vertex="1">
          <mxGeometry x="3230" y="110" width="50" height="50" as="geometry" />
        </mxCell>
        <mxCell id="ZUP1OzC_5cRaVZ1VSMOz-15" value="&lt;font style=&quot;font-size: 11px;&quot;&gt;Пациент &lt;br&gt;пришел на приём&lt;/font&gt;" style="points=[[0.145,0.145,0],[0.5,0,0],[0.855,0.145,0],[1,0.5,0],[0.855,0.855,0],[0.5,1,0],[0.145,0.855,0],[0,0.5,0]];shape=mxgraph.bpmn.event;html=1;verticalLabelPosition=bottom;labelBackgroundColor=#ffffff;verticalAlign=top;align=center;perimeter=ellipsePerimeter;outlineConnect=0;aspect=fixed;outline=catching;symbol=message;" parent="8AS6pjPPewD20Yihxh6A-24" vertex="1">
          <mxGeometry x="2455" y="110" width="50" height="50" as="geometry" />
        </mxCell>
        <mxCell id="x_Vbej6sgpwdbN5jdDDm-1" value="&lt;span style=&quot;background-color: rgb(248, 249, 250);&quot;&gt;&lt;font style=&quot;font-size: 11px;&quot;&gt;Приём&amp;nbsp;завершён&amp;nbsp;&lt;/font&gt;&lt;br&gt;&lt;/span&gt;" style="points=[[0.145,0.145,0],[0.5,0,0],[0.855,0.145,0],[1,0.5,0],[0.855,0.855,0],[0.5,1,0],[0.145,0.855,0],[0,0.5,0]];shape=mxgraph.bpmn.event;html=1;verticalLabelPosition=bottom;labelBackgroundColor=#ffffff;verticalAlign=top;align=center;perimeter=ellipsePerimeter;outlineConnect=0;aspect=fixed;outline=end;symbol=terminate2;fontSize=11;" parent="8AS6pjPPewD20Yihxh6A-24" vertex="1">
          <mxGeometry x="3760" y="110" width="50" height="50" as="geometry" />
        </mxCell>
        <mxCell id="ikLtmQ6UH8UNz6-I8GZr-11" style="edgeStyle=orthogonalEdgeStyle;rounded=0;orthogonalLoop=1;jettySize=auto;html=1;exitX=1;exitY=0.5;exitDx=0;exitDy=0;exitPerimeter=0;entryX=0;entryY=0.5;entryDx=0;entryDy=0;entryPerimeter=0;" edge="1" parent="8AS6pjPPewD20Yihxh6A-24" source="ZUP1OzC_5cRaVZ1VSMOz-15" target="ZUP1OzC_5cRaVZ1VSMOz-7">
          <mxGeometry relative="1" as="geometry" />
        </mxCell>
        <mxCell id="ikLtmQ6UH8UNz6-I8GZr-12" style="edgeStyle=orthogonalEdgeStyle;rounded=0;orthogonalLoop=1;jettySize=auto;html=1;exitX=1;exitY=0.5;exitDx=0;exitDy=0;exitPerimeter=0;entryX=0;entryY=0.5;entryDx=0;entryDy=0;entryPerimeter=0;" edge="1" parent="8AS6pjPPewD20Yihxh6A-24" source="ZUP1OzC_5cRaVZ1VSMOz-7" target="ZUP1OzC_5cRaVZ1VSMOz-11">
          <mxGeometry relative="1" as="geometry" />
        </mxCell>
        <mxCell id="ikLtmQ6UH8UNz6-I8GZr-13" style="edgeStyle=orthogonalEdgeStyle;rounded=0;orthogonalLoop=1;jettySize=auto;html=1;exitX=1;exitY=0.5;exitDx=0;exitDy=0;exitPerimeter=0;entryX=0;entryY=0.5;entryDx=0;entryDy=0;entryPerimeter=0;" edge="1" parent="8AS6pjPPewD20Yihxh6A-24" source="ZUP1OzC_5cRaVZ1VSMOz-11" target="ZUP1OzC_5cRaVZ1VSMOz-10">
          <mxGeometry relative="1" as="geometry" />
        </mxCell>
        <mxCell id="ikLtmQ6UH8UNz6-I8GZr-17" style="edgeStyle=orthogonalEdgeStyle;rounded=0;orthogonalLoop=1;jettySize=auto;html=1;exitX=1;exitY=0.5;exitDx=0;exitDy=0;exitPerimeter=0;entryX=0;entryY=0.5;entryDx=0;entryDy=0;entryPerimeter=0;" edge="1" parent="8AS6pjPPewD20Yihxh6A-24" source="ZUP1OzC_5cRaVZ1VSMOz-10" target="ZUP1OzC_5cRaVZ1VSMOz-8">
          <mxGeometry relative="1" as="geometry" />
        </mxCell>
        <mxCell id="ikLtmQ6UH8UNz6-I8GZr-18" style="edgeStyle=orthogonalEdgeStyle;rounded=0;orthogonalLoop=1;jettySize=auto;html=1;exitX=1;exitY=0.5;exitDx=0;exitDy=0;exitPerimeter=0;entryX=0;entryY=0.5;entryDx=0;entryDy=0;entryPerimeter=0;" edge="1" parent="8AS6pjPPewD20Yihxh6A-24" source="ZUP1OzC_5cRaVZ1VSMOz-8" target="x_Vbej6sgpwdbN5jdDDm-1">
          <mxGeometry relative="1" as="geometry" />
        </mxCell>
        <mxCell id="8AS6pjPPewD20Yihxh6A-35" value="Пациент" style="swimlane;html=1;startSize=20;horizontal=0;labelBackgroundColor=default;labelBorderColor=none;textShadow=0;labelPosition=right;verticalLabelPosition=middle;align=left;verticalAlign=middle;" vertex="1" parent="1">
          <mxGeometry x="-90" y="-1120" width="4520" height="450" as="geometry" />
        </mxCell>
        <mxCell id="uKc6nEdO9Ty2_bj2aLSE-4" style="edgeStyle=orthogonalEdgeStyle;rounded=0;orthogonalLoop=1;jettySize=auto;html=1;exitX=1;exitY=0.5;exitDx=0;exitDy=0;exitPerimeter=0;entryX=0;entryY=0.5;entryDx=0;entryDy=0;entryPerimeter=0;" edge="1" parent="8AS6pjPPewD20Yihxh6A-35" source="rchoUd0vVPW4RlcTAYaP-1" target="ZUP1OzC_5cRaVZ1VSMOz-18">
          <mxGeometry relative="1" as="geometry">
            <mxPoint x="119.70370370370347" y="110" as="targetPoint" />
          </mxGeometry>
        </mxCell>
        <mxCell id="rchoUd0vVPW4RlcTAYaP-1" value="&lt;font style=&quot;font-size: 11px;&quot;&gt;Болит живот&lt;/font&gt;" style="points=[[0.145,0.145,0],[0.5,0,0],[0.855,0.145,0],[1,0.5,0],[0.855,0.855,0],[0.5,1,0],[0.145,0.855,0],[0,0.5,0]];shape=mxgraph.bpmn.event;html=1;verticalLabelPosition=bottom;labelBackgroundColor=#ffffff;verticalAlign=top;align=center;perimeter=ellipsePerimeter;outlineConnect=0;aspect=fixed;outline=standard;symbol=general;" vertex="1" parent="8AS6pjPPewD20Yihxh6A-35">
          <mxGeometry x="70" y="190" width="50" height="50" as="geometry" />
        </mxCell>
        <mxCell id="ZUP1OzC_5cRaVZ1VSMOz-44" value="Авторизоваться" style="points=[[0.25,0,0],[0.5,0,0],[0.75,0,0],[1,0.25,0],[1,0.5,0],[1,0.75,0],[0.75,1,0],[0.5,1,0],[0.25,1,0],[0,0.75,0],[0,0.5,0],[0,0.25,0]];shape=mxgraph.bpmn.task;whiteSpace=wrap;rectStyle=rounded;size=10;taskMarker=abstract;fontSize=11;" parent="8AS6pjPPewD20Yihxh6A-35" vertex="1">
          <mxGeometry x="690" y="300" width="120" height="80" as="geometry" />
        </mxCell>
        <mxCell id="ZUP1OzC_5cRaVZ1VSMOz-58" value="Выбрать врача" style="points=[[0.25,0,0],[0.5,0,0],[0.75,0,0],[1,0.25,0],[1,0.5,0],[1,0.75,0],[0.75,1,0],[0.5,1,0],[0.25,1,0],[0,0.75,0],[0,0.5,0],[0,0.25,0]];shape=mxgraph.bpmn.task;whiteSpace=wrap;rectStyle=rounded;size=10;taskMarker=abstract;fontSize=11;" parent="8AS6pjPPewD20Yihxh6A-35" vertex="1">
          <mxGeometry x="1070" y="170" width="120" height="80" as="geometry" />
        </mxCell>
        <mxCell id="ZUP1OzC_5cRaVZ1VSMOz-25" value="Выбрать дату и время" style="points=[[0.25,0,0],[0.5,0,0],[0.75,0,0],[1,0.25,0],[1,0.5,0],[1,0.75,0],[0.75,1,0],[0.5,1,0],[0.25,1,0],[0,0.75,0],[0,0.5,0],[0,0.25,0]];shape=mxgraph.bpmn.task;whiteSpace=wrap;rectStyle=rounded;size=10;taskMarker=abstract;fontSize=11;" parent="8AS6pjPPewD20Yihxh6A-35" vertex="1">
          <mxGeometry x="1250" y="170" width="120" height="80" as="geometry" />
        </mxCell>
        <mxCell id="ZUP1OzC_5cRaVZ1VSMOz-46" value="Зарегистрироваться" style="points=[[0.25,0,0],[0.5,0,0],[0.75,0,0],[1,0.25,0],[1,0.5,0],[1,0.75,0],[0.75,1,0],[0.5,1,0],[0.25,1,0],[0,0.75,0],[0,0.5,0],[0,0.25,0]];shape=mxgraph.bpmn.task;whiteSpace=wrap;rectStyle=rounded;size=10;taskMarker=abstract;fontSize=11;" parent="8AS6pjPPewD20Yihxh6A-35" vertex="1">
          <mxGeometry x="495" y="55" width="120" height="80" as="geometry" />
        </mxCell>
        <mxCell id="ZUP1OzC_5cRaVZ1VSMOz-48" value="Ввести персональные данные" style="points=[[0.25,0,0],[0.5,0,0],[0.75,0,0],[1,0.25,0],[1,0.5,0],[1,0.75,0],[0.75,1,0],[0.5,1,0],[0.25,1,0],[0,0.75,0],[0,0.5,0],[0,0.25,0]];shape=mxgraph.bpmn.task;whiteSpace=wrap;rectStyle=rounded;size=10;taskMarker=abstract;fontSize=11;" parent="8AS6pjPPewD20Yihxh6A-35" vertex="1">
          <mxGeometry x="690" y="55" width="120" height="80" as="geometry" />
        </mxCell>
        <mxCell id="ikLtmQ6UH8UNz6-I8GZr-1" style="edgeStyle=orthogonalEdgeStyle;rounded=0;orthogonalLoop=1;jettySize=auto;html=1;exitX=1;exitY=0.5;exitDx=0;exitDy=0;exitPerimeter=0;" edge="1" parent="8AS6pjPPewD20Yihxh6A-35" source="ZUP1OzC_5cRaVZ1VSMOz-27" target="ZUP1OzC_5cRaVZ1VSMOz-29">
          <mxGeometry relative="1" as="geometry" />
        </mxCell>
        <mxCell id="ZUP1OzC_5cRaVZ1VSMOz-27" value="Записаться на приём" style="points=[[0.25,0,0],[0.5,0,0],[0.75,0,0],[1,0.25,0],[1,0.5,0],[1,0.75,0],[0.75,1,0],[0.5,1,0],[0.25,1,0],[0,0.75,0],[0,0.5,0],[0,0.25,0]];shape=mxgraph.bpmn.task;whiteSpace=wrap;rectStyle=rounded;size=10;taskMarker=abstract;fontSize=11;" parent="8AS6pjPPewD20Yihxh6A-35" vertex="1">
          <mxGeometry x="1420" y="170" width="120" height="80" as="geometry" />
        </mxCell>
        <mxCell id="ZUP1OzC_5cRaVZ1VSMOz-29" value="&lt;font style=&quot;font-size: 11px;&quot;&gt;За 1 день &lt;br&gt;до назначенного &lt;br&gt;приёма&lt;/font&gt;" style="points=[[0.145,0.145,0],[0.5,0,0],[0.855,0.145,0],[1,0.5,0],[0.855,0.855,0],[0.5,1,0],[0.145,0.855,0],[0,0.5,0]];shape=mxgraph.bpmn.event;html=1;verticalLabelPosition=bottom;labelBackgroundColor=#ffffff;verticalAlign=bottom;align=center;perimeter=ellipsePerimeter;outlineConnect=0;aspect=fixed;outline=standard;symbol=timer;" parent="8AS6pjPPewD20Yihxh6A-35" vertex="1">
          <mxGeometry x="1620" y="185" width="50" height="50" as="geometry" />
        </mxCell>
        <mxCell id="ZUP1OzC_5cRaVZ1VSMOz-54" value="Подтвердить запись" style="points=[[0.25,0,0],[0.5,0,0],[0.75,0,0],[1,0.25,0],[1,0.5,0],[1,0.75,0],[0.75,1,0],[0.5,1,0],[0.25,1,0],[0,0.75,0],[0,0.5,0],[0,0.25,0]];shape=mxgraph.bpmn.task;whiteSpace=wrap;rectStyle=rounded;size=10;taskMarker=abstract;fontSize=11;" parent="8AS6pjPPewD20Yihxh6A-35" vertex="1">
          <mxGeometry x="2000" y="280" width="120" height="80" as="geometry" />
        </mxCell>
        <mxCell id="uKc6nEdO9Ty2_bj2aLSE-15" style="edgeStyle=orthogonalEdgeStyle;rounded=0;orthogonalLoop=1;jettySize=auto;html=1;exitX=1;exitY=0.5;exitDx=0;exitDy=0;exitPerimeter=0;" edge="1" parent="8AS6pjPPewD20Yihxh6A-35" source="ZUP1OzC_5cRaVZ1VSMOz-23" target="ZUP1OzC_5cRaVZ1VSMOz-58">
          <mxGeometry relative="1" as="geometry" />
        </mxCell>
        <mxCell id="ZUP1OzC_5cRaVZ1VSMOz-23" value="Выбрать филиал" style="points=[[0.25,0,0],[0.5,0,0],[0.75,0,0],[1,0.25,0],[1,0.5,0],[1,0.75,0],[0.75,1,0],[0.5,1,0],[0.25,1,0],[0,0.75,0],[0,0.5,0],[0,0.25,0]];shape=mxgraph.bpmn.task;whiteSpace=wrap;rectStyle=rounded;size=10;taskMarker=abstract;fontSize=11;" parent="8AS6pjPPewD20Yihxh6A-35" vertex="1">
          <mxGeometry x="900" y="170" width="120" height="80" as="geometry" />
        </mxCell>
        <mxCell id="ikLtmQ6UH8UNz6-I8GZr-7" style="edgeStyle=orthogonalEdgeStyle;rounded=0;orthogonalLoop=1;jettySize=auto;html=1;exitX=1;exitY=0.5;exitDx=0;exitDy=0;exitPerimeter=0;" edge="1" parent="8AS6pjPPewD20Yihxh6A-35" source="ZUP1OzC_5cRaVZ1VSMOz-34" target="ZUP1OzC_5cRaVZ1VSMOz-31">
          <mxGeometry relative="1" as="geometry" />
        </mxCell>
        <mxCell id="ZUP1OzC_5cRaVZ1VSMOz-34" value="Отменить запись" style="points=[[0.25,0,0],[0.5,0,0],[0.75,0,0],[1,0.25,0],[1,0.5,0],[1,0.75,0],[0.75,1,0],[0.5,1,0],[0.25,1,0],[0,0.75,0],[0,0.5,0],[0,0.25,0]];shape=mxgraph.bpmn.task;whiteSpace=wrap;rectStyle=rounded;size=10;taskMarker=abstract;fontSize=11;" parent="8AS6pjPPewD20Yihxh6A-35" vertex="1">
          <mxGeometry x="2000" y="75" width="120" height="80" as="geometry" />
        </mxCell>
        <mxCell id="uKc6nEdO9Ty2_bj2aLSE-6" style="edgeStyle=orthogonalEdgeStyle;rounded=0;orthogonalLoop=1;jettySize=auto;html=1;exitX=1;exitY=0.5;exitDx=0;exitDy=0;exitPerimeter=0;" edge="1" parent="8AS6pjPPewD20Yihxh6A-35" source="ZUP1OzC_5cRaVZ1VSMOz-18" target="ZUP1OzC_5cRaVZ1VSMOz-41">
          <mxGeometry relative="1" as="geometry" />
        </mxCell>
        <mxCell id="ZUP1OzC_5cRaVZ1VSMOz-18" value="Открыть приложение медицинского центра" style="points=[[0.25,0,0],[0.5,0,0],[0.75,0,0],[1,0.25,0],[1,0.5,0],[1,0.75,0],[0.75,1,0],[0.5,1,0],[0.25,1,0],[0,0.75,0],[0,0.5,0],[0,0.25,0]];shape=mxgraph.bpmn.task;whiteSpace=wrap;rectStyle=rounded;size=10;taskMarker=abstract;fontSize=11;" parent="8AS6pjPPewD20Yihxh6A-35" vertex="1">
          <mxGeometry x="170" y="175" width="120" height="80" as="geometry" />
        </mxCell>
        <mxCell id="ZUP1OzC_5cRaVZ1VSMOz-49" value="Прийти на приём" style="points=[[0.25,0,0],[0.5,0,0],[0.75,0,0],[1,0.25,0],[1,0.5,0],[1,0.75,0],[0.75,1,0],[0.5,1,0],[0.25,1,0],[0,0.75,0],[0,0.5,0],[0,0.25,0]];shape=mxgraph.bpmn.task;whiteSpace=wrap;rectStyle=rounded;size=10;taskMarker=abstract;fontSize=11;" parent="8AS6pjPPewD20Yihxh6A-35" vertex="1">
          <mxGeometry x="2420" y="280" width="120" height="80" as="geometry" />
        </mxCell>
        <mxCell id="ZUP1OzC_5cRaVZ1VSMOz-32" value="&lt;font style=&quot;font-size: 11px;&quot;&gt;Пациент &lt;br&gt;подтвердил &lt;br&gt;запись?&lt;/font&gt;" style="points=[[0.25,0.25,0],[0.5,0,0],[0.75,0.25,0],[1,0.5,0],[0.75,0.75,0],[0.5,1,0],[0.25,0.75,0],[0,0.5,0]];shape=mxgraph.bpmn.gateway2;html=1;verticalLabelPosition=middle;labelBackgroundColor=none;verticalAlign=middle;align=left;perimeter=rhombusPerimeter;outlineConnect=0;outline=none;symbol=none;gwType=exclusive;strokeColor=default;labelPosition=right;" parent="8AS6pjPPewD20Yihxh6A-35" vertex="1">
          <mxGeometry x="1870" y="185" width="50" height="50" as="geometry" />
        </mxCell>
        <mxCell id="ZUP1OzC_5cRaVZ1VSMOz-41" value="&lt;font style=&quot;font-size: 11px;&quot;&gt;Пациент был&lt;br&gt;зарегистрирован?&lt;/font&gt;" style="points=[[0.25,0.25,0],[0.5,0,0],[0.75,0.25,0],[1,0.5,0],[0.75,0.75,0],[0.5,1,0],[0.25,0.75,0],[0,0.5,0]];shape=mxgraph.bpmn.gateway2;html=1;verticalLabelPosition=middle;labelBackgroundColor=#ffffff;verticalAlign=middle;align=left;perimeter=rhombusPerimeter;outlineConnect=0;outline=none;symbol=none;gwType=exclusive;labelPosition=right;" parent="8AS6pjPPewD20Yihxh6A-35" vertex="1">
          <mxGeometry x="370" y="190" width="50" height="50" as="geometry" />
        </mxCell>
        <mxCell id="ZUP1OzC_5cRaVZ1VSMOz-51" value="&lt;font style=&quot;font-size: 11px;&quot;&gt;В день &lt;br&gt;записи на приём&lt;/font&gt;" style="points=[[0.145,0.145,0],[0.5,0,0],[0.855,0.145,0],[1,0.5,0],[0.855,0.855,0],[0.5,1,0],[0.145,0.855,0],[0,0.5,0]];shape=mxgraph.bpmn.event;html=1;verticalLabelPosition=bottom;labelBackgroundColor=#ffffff;verticalAlign=bottom;align=center;perimeter=ellipsePerimeter;outlineConnect=0;aspect=fixed;outline=standard;symbol=timer;" parent="8AS6pjPPewD20Yihxh6A-35" vertex="1">
          <mxGeometry x="2240" y="295" width="50" height="50" as="geometry" />
        </mxCell>
        <mxCell id="ZUP1OzC_5cRaVZ1VSMOz-30" value="&lt;font style=&quot;font-size: 11px;&quot;&gt;&lt;font style=&quot;font-size: 11px;&quot;&gt;Уведомление &lt;br&gt;для&amp;nbsp;подтверждения &lt;br&gt;приёма&lt;/font&gt;&amp;nbsp;&lt;/font&gt;" style="points=[[0.145,0.145,0],[0.5,0,0],[0.855,0.145,0],[1,0.5,0],[0.855,0.855,0],[0.5,1,0],[0.145,0.855,0],[0,0.5,0]];shape=mxgraph.bpmn.event;html=1;verticalLabelPosition=bottom;labelBackgroundColor=#ffffff;verticalAlign=top;align=center;perimeter=ellipsePerimeter;outlineConnect=0;aspect=fixed;outline=catching;symbol=message;fontSize=16;" parent="8AS6pjPPewD20Yihxh6A-35" vertex="1">
          <mxGeometry x="1750" y="185" width="50" height="50" as="geometry" />
        </mxCell>
        <mxCell id="ZUP1OzC_5cRaVZ1VSMOz-31" value="&lt;font style=&quot;font-size: 11px;&quot;&gt;Запись отменена&lt;/font&gt;" style="points=[[0.145,0.145,0],[0.5,0,0],[0.855,0.145,0],[1,0.5,0],[0.855,0.855,0],[0.5,1,0],[0.145,0.855,0],[0,0.5,0]];shape=mxgraph.bpmn.event;html=1;verticalLabelPosition=bottom;labelBackgroundColor=#ffffff;verticalAlign=top;align=center;perimeter=ellipsePerimeter;outlineConnect=0;aspect=fixed;outline=end;symbol=terminate2;" parent="8AS6pjPPewD20Yihxh6A-35" vertex="1">
          <mxGeometry x="2240" y="90" width="50" height="50" as="geometry" />
        </mxCell>
        <mxCell id="x_Vbej6sgpwdbN5jdDDm-2" value="&lt;span style=&quot;background-color: rgb(248, 249, 250);&quot;&gt;&lt;font style=&quot;font-size: 11px;&quot;&gt;Пациент принят&lt;/font&gt;&lt;br&gt;&lt;/span&gt;" style="points=[[0.145,0.145,0],[0.5,0,0],[0.855,0.145,0],[1,0.5,0],[0.855,0.855,0],[0.5,1,0],[0.145,0.855,0],[0,0.5,0]];shape=mxgraph.bpmn.event;html=1;verticalLabelPosition=bottom;labelBackgroundColor=#ffffff;verticalAlign=top;align=center;perimeter=ellipsePerimeter;outlineConnect=0;aspect=fixed;outline=end;symbol=terminate2;fontSize=11;" parent="8AS6pjPPewD20Yihxh6A-35" vertex="1">
          <mxGeometry x="3760" y="295" width="50" height="50" as="geometry" />
        </mxCell>
        <mxCell id="x_Vbej6sgpwdbN5jdDDm-3" value="&lt;font style=&quot;font-size: 11px;&quot;&gt;Лечение назначено&lt;/font&gt;" style="points=[[0.145,0.145,0],[0.5,0,0],[0.855,0.145,0],[1,0.5,0],[0.855,0.855,0],[0.5,1,0],[0.145,0.855,0],[0,0.5,0]];shape=mxgraph.bpmn.event;html=1;verticalLabelPosition=bottom;labelBackgroundColor=#ffffff;verticalAlign=top;align=center;perimeter=ellipsePerimeter;outlineConnect=0;aspect=fixed;outline=catching;symbol=message;" parent="8AS6pjPPewD20Yihxh6A-35" vertex="1">
          <mxGeometry x="3475" y="295" width="50" height="50" as="geometry" />
        </mxCell>
        <mxCell id="uKc6nEdO9Ty2_bj2aLSE-7" style="edgeStyle=orthogonalEdgeStyle;rounded=0;orthogonalLoop=1;jettySize=auto;html=1;exitX=0.5;exitY=0;exitDx=0;exitDy=0;exitPerimeter=0;entryX=0;entryY=0.5;entryDx=0;entryDy=0;entryPerimeter=0;" edge="1" parent="8AS6pjPPewD20Yihxh6A-35" source="ZUP1OzC_5cRaVZ1VSMOz-41" target="ZUP1OzC_5cRaVZ1VSMOz-46">
          <mxGeometry relative="1" as="geometry" />
        </mxCell>
        <mxCell id="uKc6nEdO9Ty2_bj2aLSE-9" value="Нет" style="edgeLabel;html=1;align=center;verticalAlign=middle;resizable=0;points=[];" vertex="1" connectable="0" parent="uKc6nEdO9Ty2_bj2aLSE-7">
          <mxGeometry x="0.2819" y="-1" relative="1" as="geometry">
            <mxPoint x="5" y="24" as="offset" />
          </mxGeometry>
        </mxCell>
        <mxCell id="uKc6nEdO9Ty2_bj2aLSE-8" style="edgeStyle=orthogonalEdgeStyle;rounded=0;orthogonalLoop=1;jettySize=auto;html=1;exitX=0.5;exitY=1;exitDx=0;exitDy=0;exitPerimeter=0;entryX=0;entryY=0.5;entryDx=0;entryDy=0;entryPerimeter=0;" edge="1" parent="8AS6pjPPewD20Yihxh6A-35" source="ZUP1OzC_5cRaVZ1VSMOz-41" target="ZUP1OzC_5cRaVZ1VSMOz-44">
          <mxGeometry relative="1" as="geometry" />
        </mxCell>
        <mxCell id="uKc6nEdO9Ty2_bj2aLSE-10" value="Да" style="edgeLabel;html=1;align=center;verticalAlign=middle;resizable=0;points=[];" vertex="1" connectable="0" parent="uKc6nEdO9Ty2_bj2aLSE-8">
          <mxGeometry x="0.2097" y="-1" relative="1" as="geometry">
            <mxPoint x="11" y="-26" as="offset" />
          </mxGeometry>
        </mxCell>
        <mxCell id="uKc6nEdO9Ty2_bj2aLSE-11" style="edgeStyle=orthogonalEdgeStyle;rounded=0;orthogonalLoop=1;jettySize=auto;html=1;exitX=1;exitY=0.5;exitDx=0;exitDy=0;exitPerimeter=0;entryX=0;entryY=0.5;entryDx=0;entryDy=0;entryPerimeter=0;" edge="1" parent="8AS6pjPPewD20Yihxh6A-35" source="ZUP1OzC_5cRaVZ1VSMOz-46" target="ZUP1OzC_5cRaVZ1VSMOz-48">
          <mxGeometry relative="1" as="geometry" />
        </mxCell>
        <mxCell id="uKc6nEdO9Ty2_bj2aLSE-12" style="edgeStyle=orthogonalEdgeStyle;rounded=0;orthogonalLoop=1;jettySize=auto;html=1;exitX=0.5;exitY=1;exitDx=0;exitDy=0;exitPerimeter=0;entryX=0.5;entryY=0;entryDx=0;entryDy=0;entryPerimeter=0;" edge="1" parent="8AS6pjPPewD20Yihxh6A-35" source="ZUP1OzC_5cRaVZ1VSMOz-48" target="ZUP1OzC_5cRaVZ1VSMOz-44">
          <mxGeometry relative="1" as="geometry" />
        </mxCell>
        <mxCell id="uKc6nEdO9Ty2_bj2aLSE-14" style="edgeStyle=orthogonalEdgeStyle;rounded=0;orthogonalLoop=1;jettySize=auto;html=1;exitX=1;exitY=0.5;exitDx=0;exitDy=0;exitPerimeter=0;entryX=0;entryY=0.5;entryDx=0;entryDy=0;entryPerimeter=0;" edge="1" parent="8AS6pjPPewD20Yihxh6A-35" source="ZUP1OzC_5cRaVZ1VSMOz-44" target="ZUP1OzC_5cRaVZ1VSMOz-23">
          <mxGeometry relative="1" as="geometry" />
        </mxCell>
        <mxCell id="uKc6nEdO9Ty2_bj2aLSE-16" style="edgeStyle=orthogonalEdgeStyle;rounded=0;orthogonalLoop=1;jettySize=auto;html=1;exitX=1;exitY=0.5;exitDx=0;exitDy=0;exitPerimeter=0;entryX=0;entryY=0.5;entryDx=0;entryDy=0;entryPerimeter=0;" edge="1" parent="8AS6pjPPewD20Yihxh6A-35" source="ZUP1OzC_5cRaVZ1VSMOz-58" target="ZUP1OzC_5cRaVZ1VSMOz-25">
          <mxGeometry relative="1" as="geometry" />
        </mxCell>
        <mxCell id="uKc6nEdO9Ty2_bj2aLSE-17" style="edgeStyle=orthogonalEdgeStyle;rounded=0;orthogonalLoop=1;jettySize=auto;html=1;exitX=1;exitY=0.5;exitDx=0;exitDy=0;exitPerimeter=0;entryX=0;entryY=0.5;entryDx=0;entryDy=0;entryPerimeter=0;" edge="1" parent="8AS6pjPPewD20Yihxh6A-35" source="ZUP1OzC_5cRaVZ1VSMOz-25" target="ZUP1OzC_5cRaVZ1VSMOz-27">
          <mxGeometry relative="1" as="geometry" />
        </mxCell>
        <mxCell id="ikLtmQ6UH8UNz6-I8GZr-2" style="edgeStyle=orthogonalEdgeStyle;rounded=0;orthogonalLoop=1;jettySize=auto;html=1;exitX=1;exitY=0.5;exitDx=0;exitDy=0;exitPerimeter=0;entryX=0;entryY=0.5;entryDx=0;entryDy=0;entryPerimeter=0;" edge="1" parent="8AS6pjPPewD20Yihxh6A-35" source="ZUP1OzC_5cRaVZ1VSMOz-29" target="ZUP1OzC_5cRaVZ1VSMOz-30">
          <mxGeometry relative="1" as="geometry" />
        </mxCell>
        <mxCell id="ikLtmQ6UH8UNz6-I8GZr-3" style="edgeStyle=orthogonalEdgeStyle;rounded=0;orthogonalLoop=1;jettySize=auto;html=1;exitX=0.5;exitY=0;exitDx=0;exitDy=0;exitPerimeter=0;entryX=0;entryY=0.5;entryDx=0;entryDy=0;entryPerimeter=0;" edge="1" parent="8AS6pjPPewD20Yihxh6A-35" source="ZUP1OzC_5cRaVZ1VSMOz-32" target="ZUP1OzC_5cRaVZ1VSMOz-34">
          <mxGeometry relative="1" as="geometry" />
        </mxCell>
        <mxCell id="ikLtmQ6UH8UNz6-I8GZr-20" value="Нет" style="edgeLabel;html=1;align=center;verticalAlign=middle;resizable=0;points=[];" vertex="1" connectable="0" parent="ikLtmQ6UH8UNz6-I8GZr-3">
          <mxGeometry x="0.1555" y="-3" relative="1" as="geometry">
            <mxPoint x="24" y="17" as="offset" />
          </mxGeometry>
        </mxCell>
        <mxCell id="ikLtmQ6UH8UNz6-I8GZr-4" style="edgeStyle=orthogonalEdgeStyle;rounded=0;orthogonalLoop=1;jettySize=auto;html=1;exitX=0.5;exitY=1;exitDx=0;exitDy=0;exitPerimeter=0;entryX=0;entryY=0.5;entryDx=0;entryDy=0;entryPerimeter=0;" edge="1" parent="8AS6pjPPewD20Yihxh6A-35" source="ZUP1OzC_5cRaVZ1VSMOz-32" target="ZUP1OzC_5cRaVZ1VSMOz-54">
          <mxGeometry relative="1" as="geometry" />
        </mxCell>
        <mxCell id="ikLtmQ6UH8UNz6-I8GZr-21" value="Да" style="edgeLabel;html=1;align=center;verticalAlign=middle;resizable=0;points=[];" vertex="1" connectable="0" parent="ikLtmQ6UH8UNz6-I8GZr-4">
          <mxGeometry x="0.0668" y="2" relative="1" as="geometry">
            <mxPoint x="39" y="22" as="offset" />
          </mxGeometry>
        </mxCell>
        <mxCell id="ikLtmQ6UH8UNz6-I8GZr-5" style="edgeStyle=orthogonalEdgeStyle;rounded=0;orthogonalLoop=1;jettySize=auto;html=1;exitX=1;exitY=0.5;exitDx=0;exitDy=0;exitPerimeter=0;entryX=0;entryY=0.5;entryDx=0;entryDy=0;entryPerimeter=0;" edge="1" parent="8AS6pjPPewD20Yihxh6A-35" source="ZUP1OzC_5cRaVZ1VSMOz-30" target="ZUP1OzC_5cRaVZ1VSMOz-32">
          <mxGeometry relative="1" as="geometry" />
        </mxCell>
        <mxCell id="ikLtmQ6UH8UNz6-I8GZr-8" style="edgeStyle=orthogonalEdgeStyle;rounded=0;orthogonalLoop=1;jettySize=auto;html=1;exitX=1;exitY=0.5;exitDx=0;exitDy=0;exitPerimeter=0;entryX=0;entryY=0.5;entryDx=0;entryDy=0;entryPerimeter=0;" edge="1" parent="8AS6pjPPewD20Yihxh6A-35" source="ZUP1OzC_5cRaVZ1VSMOz-54" target="ZUP1OzC_5cRaVZ1VSMOz-51">
          <mxGeometry relative="1" as="geometry" />
        </mxCell>
        <mxCell id="ikLtmQ6UH8UNz6-I8GZr-9" style="edgeStyle=orthogonalEdgeStyle;rounded=0;orthogonalLoop=1;jettySize=auto;html=1;exitX=1;exitY=0.5;exitDx=0;exitDy=0;exitPerimeter=0;entryX=0;entryY=0.5;entryDx=0;entryDy=0;entryPerimeter=0;" edge="1" parent="8AS6pjPPewD20Yihxh6A-35" source="ZUP1OzC_5cRaVZ1VSMOz-51" target="ZUP1OzC_5cRaVZ1VSMOz-49">
          <mxGeometry relative="1" as="geometry" />
        </mxCell>
        <mxCell id="ikLtmQ6UH8UNz6-I8GZr-15" style="edgeStyle=orthogonalEdgeStyle;rounded=0;orthogonalLoop=1;jettySize=auto;html=1;exitX=1;exitY=0.5;exitDx=0;exitDy=0;exitPerimeter=0;entryX=0;entryY=0.5;entryDx=0;entryDy=0;entryPerimeter=0;" edge="1" parent="8AS6pjPPewD20Yihxh6A-35" source="ZUP1OzC_5cRaVZ1VSMOz-49" target="x_Vbej6sgpwdbN5jdDDm-3">
          <mxGeometry relative="1" as="geometry" />
        </mxCell>
        <mxCell id="ikLtmQ6UH8UNz6-I8GZr-16" style="edgeStyle=orthogonalEdgeStyle;rounded=0;orthogonalLoop=1;jettySize=auto;html=1;exitX=1;exitY=0.5;exitDx=0;exitDy=0;exitPerimeter=0;entryX=0;entryY=0.5;entryDx=0;entryDy=0;entryPerimeter=0;" edge="1" parent="8AS6pjPPewD20Yihxh6A-35" source="x_Vbej6sgpwdbN5jdDDm-3" target="x_Vbej6sgpwdbN5jdDDm-2">
          <mxGeometry relative="1" as="geometry" />
        </mxCell>
        <mxCell id="ikLtmQ6UH8UNz6-I8GZr-10" style="edgeStyle=orthogonalEdgeStyle;rounded=0;orthogonalLoop=1;jettySize=auto;html=1;exitX=0.5;exitY=1;exitDx=0;exitDy=0;exitPerimeter=0;entryX=0.5;entryY=0;entryDx=0;entryDy=0;entryPerimeter=0;endArrow=block;endFill=0;dashed=1;startArrow=diamond;startFill=0;" edge="1" parent="1" source="ZUP1OzC_5cRaVZ1VSMOz-49" target="ZUP1OzC_5cRaVZ1VSMOz-15">
          <mxGeometry relative="1" as="geometry" />
        </mxCell>
        <mxCell id="ikLtmQ6UH8UNz6-I8GZr-19" style="edgeStyle=orthogonalEdgeStyle;rounded=0;orthogonalLoop=1;jettySize=auto;html=1;exitX=0.5;exitY=0;exitDx=0;exitDy=0;exitPerimeter=0;endArrow=block;endFill=0;dashed=1;startArrow=oval;startFill=0;" edge="1" parent="1" source="ZUP1OzC_5cRaVZ1VSMOz-8" target="x_Vbej6sgpwdbN5jdDDm-3">
          <mxGeometry relative="1" as="geometry" />
        </mxCell>
      </root>
    </mxGraphModel>
  </diagram>
</mxfile>
